<svg width="27" height="27" viewBox="0 0 27 27" fill="none" xmlns="http://www.w3.org/2000/svg">
<g clip-path="url(#clip0_210_2)">
<path d="M26.8682 9.73477L24.1998 1.72969C23.857 0.696094 22.892 0 21.8004 0H14.3438V10.125H26.9314C26.9104 9.99316 26.9104 9.86133 26.8682 9.73477ZM12.6562 0H5.19961C4.10801 0 3.14297 0.696094 2.8002 1.72969L0.131836 9.73477C0.0896484 9.86133 0.0896484 9.99316 0.0685547 10.125H12.6562V0ZM0 11.8125V24.4688C0 25.8662 1.13379 27 2.53125 27H24.4688C25.8662 27 27 25.8662 27 24.4688V11.8125H0Z" fill="white"/>
</g>
<defs>
<clipPath id="clip0_210_2">
<rect width="27" height="27" fill="white"/>
</clipPath>
</defs>
</svg>
