<svg width="100" height="114" viewBox="0 0 100 114" fill="none" xmlns="http://www.w3.org/2000/svg">
<g clip-path="url(#clip0_257_6)">
<circle cx="50.0007" cy="27.3481" r="15.1609" fill="white" stroke="#0BA200"/>
<mask id="path-2-inside-1_257_6" fill="white">
<path fill-rule="evenodd" clip-rule="evenodd" d="M59.4702 21.0959C60.2123 21.8142 60.2316 22.998 59.5133 23.7401L49.8414 33.7325C49.7709 33.8053 49.696 33.8712 49.6174 33.93C49.6132 33.9345 49.609 33.9389 49.6047 33.9433C48.8872 34.6862 47.7034 34.7068 46.9606 33.9893L40.9869 28.2198C40.2441 27.5023 40.2235 26.3185 40.9409 25.5757C41.6584 24.8328 42.8422 24.8123 43.585 25.5297L48.232 30.0179L56.826 21.139C57.5443 20.3969 58.7281 20.3776 59.4702 21.0959Z"/>
</mask>
<path fill-rule="evenodd" clip-rule="evenodd" d="M59.4702 21.0959C60.2123 21.8142 60.2316 22.998 59.5133 23.7401L49.8414 33.7325C49.7709 33.8053 49.696 33.8712 49.6174 33.93C49.6132 33.9345 49.609 33.9389 49.6047 33.9433C48.8872 34.6862 47.7034 34.7068 46.9606 33.9893L40.9869 28.2198C40.2441 27.5023 40.2235 26.3185 40.9409 25.5757C41.6584 24.8328 42.8422 24.8123 43.585 25.5297L48.232 30.0179L56.826 21.139C57.5443 20.3969 58.7281 20.3776 59.4702 21.0959Z" fill="#A2FF9C"/>
<path d="M59.5133 23.7401L58.7948 23.0446L59.5133 23.7401ZM59.4702 21.0959L58.7747 21.8144V21.8144L59.4702 21.0959ZM49.8414 33.7325L50.5599 34.428L50.5599 34.428L49.8414 33.7325ZM49.6174 33.93L49.0177 33.1298L48.9499 33.1807L48.8915 33.2422L49.6174 33.93ZM49.6047 33.9433L50.324 34.6381L50.324 34.638L49.6047 33.9433ZM46.9606 33.9893L47.6553 33.27H47.6553L46.9606 33.9893ZM40.9869 28.2198L40.2922 28.9391H40.2922L40.9869 28.2198ZM40.9409 25.5757L40.2216 24.881L40.2216 24.881L40.9409 25.5757ZM43.585 25.5297L42.8903 26.249L42.8903 26.249L43.585 25.5297ZM48.232 30.0179L47.5373 30.7371L48.2558 31.4311L48.9505 30.7133L48.232 30.0179ZM56.826 21.139L56.1075 20.4435L56.1075 20.4435L56.826 21.139ZM60.2318 24.4356C61.3342 23.2967 61.3046 21.4797 60.1657 20.3774L58.7747 21.8144C59.1199 22.1486 59.1289 22.6993 58.7948 23.0446L60.2318 24.4356ZM50.5599 34.428L60.2318 24.4356L58.7948 23.0446L49.1228 33.0371L50.5599 34.428ZM50.2171 34.7303C50.3378 34.6398 50.4525 34.539 50.5599 34.428L49.1228 33.0371C49.0893 33.0717 49.0541 33.1025 49.0177 33.1298L50.2171 34.7303ZM48.8915 33.2422C48.8894 33.2444 48.8874 33.2466 48.8854 33.2487L50.324 34.638C50.3305 34.6313 50.337 34.6245 50.3433 34.6178L48.8915 33.2422ZM48.8854 33.2486C48.5516 33.5942 48.0009 33.6038 47.6553 33.27L46.2659 34.7086C47.406 35.8097 49.2228 35.7782 50.324 34.6381L48.8854 33.2486ZM47.6553 33.27L41.6816 27.5005L40.2922 28.9391L46.2659 34.7086L47.6553 33.27ZM41.6816 27.5005C41.336 27.1667 41.3264 26.616 41.6602 26.2704L40.2216 24.881C39.1205 26.0211 39.1521 27.838 40.2922 28.9391L41.6816 27.5005ZM41.6602 26.2704C41.994 25.9248 42.5447 25.9152 42.8903 26.249L44.2798 24.8104C43.1397 23.7093 41.3228 23.7409 40.2216 24.881L41.6602 26.2704ZM42.8903 26.249L47.5373 30.7371L48.9267 29.2986L44.2798 24.8104L42.8903 26.249ZM56.1075 20.4435L47.5135 29.3224L48.9505 30.7133L57.5446 21.8345L56.1075 20.4435ZM60.1657 20.3774C59.0268 19.275 57.2099 19.3046 56.1075 20.4435L57.5446 21.8345C57.8787 21.4893 58.4295 21.4803 58.7747 21.8144L60.1657 20.3774Z" fill="#0BA200" mask="url(#path-2-inside-1_257_6)"/>
<rect x="-0.5" y="0.5" width="2.73991" height="7.88228" rx="1.36995" transform="matrix(-1 8.74228e-08 8.74228e-08 1 51.1035 1.03316e-07)" fill="#A2FF9C" stroke="#0BA200"/>
<rect x="-0.5" y="0.5" width="2.73991" height="7.88228" rx="1.36995" transform="matrix(-1 8.74228e-08 8.74228e-08 1 51.1035 45.814)" fill="#A2FF9C" stroke="#0BA200"/>
<rect x="-0.706044" y="0.0387447" width="2.73991" height="7.88228" rx="1.36995" transform="matrix(-0.744789 -0.6673 -0.6673 0.744789 69.8945 9.04656)" fill="#A2FF9C" stroke="#0BA200"/>
<rect x="70.3945" y="45.3782" width="2.73991" height="7.88228" rx="1.36995" transform="rotate(138.141 70.3945 45.3782)" fill="#A2FF9C" stroke="#0BA200"/>
<rect x="-0.5" y="-0.5" width="2.73991" height="7.88228" rx="1.36995" transform="matrix(-4.37114e-08 -1 -1 4.37114e-08 76.3477 28.9192)" fill="#A2FF9C" stroke="#0BA200"/>
<rect x="29.6055" y="9.54656" width="2.73991" height="7.88228" rx="1.36995" transform="rotate(-41.859 29.6055 9.54656)" fill="#A2FF9C" stroke="#0BA200"/>
<rect x="0.706044" y="-0.0387447" width="2.73991" height="7.88228" rx="1.36995" transform="matrix(0.744789 0.6673 0.6673 -0.744789 29.1055 44.8782)" fill="#A2FF9C" stroke="#0BA200"/>
<rect x="23.1523" y="29.4192" width="2.73991" height="7.88228" rx="1.36995" transform="rotate(-90 23.1523 29.4192)" fill="#A2FF9C" stroke="#0BA200"/>
<path d="M10.8369 45.7971H89.5828V70.5015C89.5828 79.1648 82.5599 86.1878 73.8966 86.1878H26.5232C17.8599 86.1878 10.8369 79.1648 10.8369 70.5015V45.7971Z" fill="white" stroke="#0BA200"/>
<rect x="6.07715" y="37.0166" width="88.2647" height="10.5367" rx="4.70588" fill="#A2FF9C" stroke="#0BA200"/>
<rect x="26.4805" y="55.0776" width="47.459" height="9.55259" stroke="#0BA200"/>
<rect x="26.4805" y="55.0776" width="5.66667" height="9" rx="2.83333" fill="#A2FF9C" stroke="#0DC600"/>
<rect x="40.4111" y="55.0776" width="5.66667" height="9" rx="2.83333" fill="#A2FF9C" stroke="#0DC600"/>
<rect x="54.3418" y="55.0776" width="5.66667" height="9" rx="2.83333" fill="#A2FF9C" stroke="#0DC600"/>
<rect x="68.2725" y="55.0776" width="5.66667" height="9" rx="2.83333" fill="#A2FF9C" stroke="#0DC600"/>
<rect x="33.4033" y="69.1267" width="33.6658" height="9.55259" stroke="#0BA200"/>
<rect x="33.4033" y="69.1267" width="5.66667" height="9" rx="2.83333" fill="#A2FF9C" stroke="#0DC600"/>
<rect x="47.4033" y="69.1267" width="5.66667" height="9" rx="2.83333" fill="#A2FF9C" stroke="#0DC600"/>
<rect x="61.4023" y="69.1267" width="5.66667" height="9" rx="2.83333" fill="#A2FF9C" stroke="#0DC600"/>
<rect x="0.5" y="91.1077" width="99" height="2.31492" rx="1.15746" fill="#A2FF9C" stroke="#0BA200"/>
<path d="M22.068 110.156C21.396 110.156 20.8 110.016 20.28 109.736C19.76 109.448 19.348 108.992 19.044 108.368C18.748 107.736 18.6 106.9 18.6 105.86C18.6 104.94 18.688 104.188 18.864 103.604C19.048 103.02 19.304 102.572 19.632 102.26C19.96 101.94 20.344 101.72 20.784 101.6C21.224 101.472 21.7 101.408 22.212 101.408C22.42 101.408 22.676 101.424 22.98 101.456C23.284 101.48 23.588 101.516 23.892 101.564C24.204 101.604 24.46 101.652 24.66 101.708L24.456 103.244C24.36 103.228 24.212 103.212 24.012 103.196C23.812 103.18 23.596 103.16 23.364 103.136C23.132 103.112 22.916 103.096 22.716 103.088C22.524 103.072 22.38 103.064 22.284 103.064C21.956 103.064 21.696 103.084 21.504 103.124C21.32 103.156 21.184 103.208 21.096 103.28C20.992 103.36 20.9 103.5 20.82 103.7C20.74 103.892 20.676 104.164 20.628 104.516C20.58 104.868 20.556 105.328 20.556 105.896C20.556 106.6 20.62 107.156 20.748 107.564C20.876 107.964 21.008 108.216 21.144 108.32C21.232 108.384 21.344 108.436 21.48 108.476C21.616 108.516 21.788 108.536 21.996 108.536C22.252 108.536 22.52 108.504 22.8 108.44C23.088 108.376 23.356 108.304 23.604 108.224C23.852 108.136 24.056 108.06 24.216 107.996C24.376 107.932 24.456 107.9 24.456 107.9L24.996 109.328C24.996 109.328 24.924 109.372 24.78 109.46C24.636 109.54 24.432 109.636 24.168 109.748C23.904 109.852 23.592 109.944 23.232 110.024C22.88 110.112 22.492 110.156 22.068 110.156ZM29.0082 110.156C28.2322 110.156 27.6162 110.008 27.1602 109.712C26.7042 109.408 26.3802 108.98 26.1882 108.428C25.9962 107.876 25.9002 107.22 25.9002 106.46C25.9002 105.708 25.9962 105.06 26.1882 104.516C26.3802 103.964 26.7042 103.54 27.1602 103.244C27.6162 102.94 28.2322 102.788 29.0082 102.788C29.7922 102.788 30.4082 102.94 30.8562 103.244C31.3042 103.54 31.6202 103.964 31.8042 104.516C31.9962 105.06 32.0922 105.712 32.0922 106.472C32.0922 107.224 31.9962 107.876 31.8042 108.428C31.6202 108.98 31.3042 109.408 30.8562 109.712C30.4082 110.008 29.7922 110.156 29.0082 110.156ZM29.0082 108.74C29.2402 108.74 29.4322 108.708 29.5842 108.644C29.7362 108.58 29.8562 108.464 29.9442 108.296C30.0402 108.128 30.1042 107.896 30.1362 107.6C30.1762 107.304 30.1962 106.928 30.1962 106.472C30.1962 106.008 30.1762 105.628 30.1362 105.332C30.0962 105.036 30.0322 104.808 29.9442 104.648C29.8562 104.48 29.7362 104.364 29.5842 104.3C29.4322 104.236 29.2402 104.204 29.0082 104.204C28.7762 104.204 28.5802 104.236 28.4202 104.3C28.2682 104.364 28.1442 104.48 28.0482 104.648C27.9602 104.808 27.8962 105.036 27.8562 105.332C27.8162 105.628 27.7962 106.008 27.7962 106.472C27.7962 106.928 27.8162 107.304 27.8562 107.6C27.8962 107.896 27.9602 108.128 28.0482 108.296C28.1442 108.464 28.2682 108.58 28.4202 108.644C28.5802 108.708 28.7762 108.74 29.0082 108.74ZM33.6199 110V102.944H34.8079L35.0239 103.652H35.0959C35.2399 103.564 35.3999 103.472 35.5759 103.376C35.7599 103.272 35.9519 103.176 36.1519 103.088C36.3599 102.992 36.5799 102.916 36.8119 102.86C37.0439 102.796 37.2839 102.764 37.5319 102.764C37.9319 102.764 38.2559 102.848 38.5039 103.016C38.7519 103.176 38.9439 103.396 39.0799 103.676C39.3999 103.468 39.7559 103.264 40.1479 103.064C40.5479 102.864 40.9879 102.764 41.4679 102.764C41.9639 102.764 42.3479 102.88 42.6199 103.112C42.8919 103.336 43.0799 103.644 43.1839 104.036C43.2959 104.428 43.3519 104.876 43.3519 105.38V110H41.4679V105.704C41.4679 105.376 41.4599 105.132 41.4439 104.972C41.4279 104.804 41.3799 104.672 41.2999 104.576C41.2519 104.512 41.1839 104.464 41.0959 104.432C41.0079 104.4 40.9079 104.384 40.7959 104.384C40.6919 104.384 40.5759 104.4 40.4479 104.432C40.3199 104.456 40.1919 104.496 40.0639 104.552C39.9359 104.6 39.8119 104.656 39.6919 104.72C39.5799 104.776 39.4759 104.836 39.3799 104.9C39.3879 104.996 39.3919 105.096 39.3919 105.2C39.3999 105.296 39.4039 105.396 39.4039 105.5V110H37.5439V105.704C37.5439 105.376 37.5359 105.128 37.5199 104.96C37.5039 104.792 37.4559 104.66 37.3759 104.564C37.3199 104.492 37.2479 104.444 37.1599 104.42C37.0719 104.396 36.9839 104.384 36.8959 104.384C36.7519 104.384 36.5919 104.408 36.4159 104.456C36.2479 104.504 36.0799 104.568 35.9119 104.648C35.7519 104.72 35.6079 104.8 35.4799 104.888V110H33.6199ZM45.0325 111.992V102.944H46.2205L46.4365 103.664H46.4965C46.6725 103.536 46.8725 103.408 47.0965 103.28C47.3285 103.144 47.5805 103.028 47.8525 102.932C48.1245 102.836 48.4165 102.788 48.7285 102.788C49.1845 102.788 49.5925 102.912 49.9525 103.16C50.3205 103.4 50.6085 103.784 50.8165 104.312C51.0245 104.832 51.1285 105.512 51.1285 106.352C51.1285 107.128 51.0405 107.764 50.8645 108.26C50.6885 108.756 50.4525 109.144 50.1565 109.424C49.8685 109.696 49.5485 109.888 49.1965 110C48.8525 110.104 48.5085 110.156 48.1645 110.156C47.9885 110.156 47.8005 110.144 47.6005 110.12C47.4005 110.104 47.2325 110.088 47.0965 110.072C46.9605 110.056 46.8925 110.048 46.8925 110.048V111.992H45.0325ZM48.0925 108.644C48.2765 108.644 48.4205 108.632 48.5245 108.608C48.6285 108.584 48.7205 108.544 48.8005 108.488C48.8805 108.432 48.9525 108.336 49.0165 108.2C49.0805 108.056 49.1325 107.836 49.1725 107.54C49.2125 107.244 49.2325 106.832 49.2325 106.304C49.2325 105.952 49.2245 105.66 49.2085 105.428C49.1925 105.196 49.1685 105.008 49.1365 104.864C49.1045 104.72 49.0605 104.612 49.0045 104.54C48.9565 104.468 48.8885 104.412 48.8005 104.372C48.7205 104.332 48.6005 104.312 48.4405 104.312C48.2245 104.312 47.9965 104.352 47.7565 104.432C47.5165 104.504 47.3125 104.584 47.1445 104.672C46.9765 104.76 46.8925 104.816 46.8925 104.84V108.476C46.8925 108.476 47.0125 108.504 47.2525 108.56C47.5005 108.616 47.7805 108.644 48.0925 108.644ZM52.5911 110V100.868H54.4511V110H52.5911ZM59.1999 110.168C58.5519 110.168 57.9799 110.048 57.4839 109.808C56.9959 109.568 56.6159 109.176 56.3439 108.632C56.0719 108.088 55.9359 107.364 55.9359 106.46C55.9359 105.516 56.0799 104.78 56.3679 104.252C56.6559 103.716 57.0439 103.336 57.5319 103.112C58.0199 102.888 58.5679 102.776 59.1759 102.776C59.7999 102.776 60.3279 102.884 60.7599 103.1C61.1919 103.316 61.5199 103.668 61.7439 104.156C61.9759 104.644 62.0919 105.3 62.0919 106.124V107.12H56.9799L57.8199 106.856C57.8199 107.144 57.8319 107.396 57.8559 107.612C57.8799 107.82 57.9199 107.996 57.9759 108.14C58.0319 108.276 58.1039 108.384 58.1919 108.464C58.2719 108.536 58.3719 108.592 58.4919 108.632C58.6199 108.672 58.7839 108.692 58.9839 108.692C59.1999 108.692 59.4399 108.672 59.7039 108.632C59.9679 108.584 60.2239 108.528 60.4719 108.464C60.7279 108.4 60.9479 108.344 61.1319 108.296C61.3159 108.24 61.4399 108.2 61.5039 108.176L61.9599 109.52C61.8879 109.552 61.7119 109.624 61.4319 109.736C61.1599 109.84 60.8279 109.936 60.4359 110.024C60.0519 110.12 59.6399 110.168 59.1999 110.168ZM57.8199 106.04L56.9919 105.788L61.0359 105.716L60.1959 105.98C60.1959 105.596 60.1799 105.28 60.1479 105.032C60.1159 104.784 60.0599 104.608 59.9799 104.504C59.9239 104.44 59.8399 104.38 59.7279 104.324C59.6159 104.268 59.4319 104.24 59.1759 104.24C58.8719 104.24 58.6439 104.272 58.4919 104.336C58.3399 104.392 58.2239 104.464 58.1439 104.552C57.9279 104.776 57.8199 105.272 57.8199 106.04ZM65.7679 110.156C65.3439 110.156 64.9799 110.092 64.6759 109.964C64.3799 109.836 64.1519 109.592 63.9919 109.232C63.8399 108.864 63.7639 108.332 63.7639 107.636V104.684H62.9479V103.52L63.8479 103.352L64.1239 101.684H65.6479V103.292H67.0879V104.72H65.6239V107.684C65.6239 107.956 65.6399 108.156 65.6719 108.284C65.7119 108.412 65.7679 108.492 65.8399 108.524C65.9199 108.556 66.0199 108.572 66.1399 108.572C66.2599 108.572 66.3919 108.568 66.5359 108.56C66.6799 108.544 66.8039 108.532 66.9079 108.524C67.0119 108.516 67.0639 108.512 67.0639 108.512V110.024C67.0639 110.024 66.9359 110.044 66.6799 110.084C66.4239 110.132 66.1199 110.156 65.7679 110.156ZM71.3406 110.168C70.6926 110.168 70.1206 110.048 69.6246 109.808C69.1366 109.568 68.7566 109.176 68.4846 108.632C68.2126 108.088 68.0766 107.364 68.0766 106.46C68.0766 105.516 68.2206 104.78 68.5086 104.252C68.7966 103.716 69.1846 103.336 69.6726 103.112C70.1606 102.888 70.7086 102.776 71.3166 102.776C71.9406 102.776 72.4686 102.884 72.9006 103.1C73.3326 103.316 73.6606 103.668 73.8846 104.156C74.1166 104.644 74.2326 105.3 74.2326 106.124V107.12H69.1206L69.9606 106.856C69.9606 107.144 69.9726 107.396 69.9966 107.612C70.0206 107.82 70.0606 107.996 70.1166 108.14C70.1726 108.276 70.2446 108.384 70.3326 108.464C70.4126 108.536 70.5126 108.592 70.6326 108.632C70.7606 108.672 70.9246 108.692 71.1246 108.692C71.3406 108.692 71.5806 108.672 71.8446 108.632C72.1086 108.584 72.3646 108.528 72.6126 108.464C72.8686 108.4 73.0886 108.344 73.2726 108.296C73.4566 108.24 73.5806 108.2 73.6446 108.176L74.1006 109.52C74.0286 109.552 73.8526 109.624 73.5726 109.736C73.3006 109.84 72.9686 109.936 72.5766 110.024C72.1926 110.12 71.7806 110.168 71.3406 110.168ZM69.9606 106.04L69.1326 105.788L73.1766 105.716L72.3366 105.98C72.3366 105.596 72.3206 105.28 72.2886 105.032C72.2566 104.784 72.2006 104.608 72.1206 104.504C72.0646 104.44 71.9806 104.38 71.8686 104.324C71.7566 104.268 71.5726 104.24 71.3166 104.24C71.0126 104.24 70.7846 104.272 70.6326 104.336C70.4806 104.392 70.3646 104.464 70.2846 104.552C70.0686 104.776 69.9606 105.272 69.9606 106.04ZM77.8245 110.156C77.3765 110.156 76.9685 110.028 76.6005 109.772C76.2325 109.516 75.9365 109.12 75.7125 108.584C75.4965 108.048 75.3885 107.36 75.3885 106.52C75.3885 105.76 75.4725 105.136 75.6405 104.648C75.8165 104.16 76.0445 103.78 76.3245 103.508C76.6125 103.236 76.9205 103.048 77.2485 102.944C77.5845 102.84 77.9125 102.788 78.2325 102.788C78.4565 102.788 78.6725 102.804 78.8805 102.836C79.0885 102.86 79.2605 102.888 79.3965 102.92C79.5325 102.952 79.6005 102.968 79.6005 102.968V100.868H81.4605V110H80.2605L80.0685 109.316H79.9965C79.8365 109.42 79.6445 109.54 79.4205 109.676C79.1965 109.804 78.9485 109.916 78.6765 110.012C78.4125 110.108 78.1285 110.156 77.8245 110.156ZM78.1485 108.644C78.2845 108.644 78.4365 108.624 78.6045 108.584C78.7725 108.536 78.9325 108.48 79.0845 108.416C79.2365 108.352 79.3605 108.3 79.4565 108.26C79.5525 108.212 79.6005 108.188 79.6005 108.188V104.564C79.6005 104.564 79.5325 104.544 79.3965 104.504C79.2685 104.456 79.1045 104.412 78.9045 104.372C78.7045 104.332 78.4965 104.312 78.2805 104.312C77.9685 104.312 77.7525 104.376 77.6325 104.504C77.5765 104.56 77.5205 104.664 77.4645 104.816C77.4165 104.968 77.3725 105.184 77.3325 105.464C77.3005 105.736 77.2845 106.1 77.2845 106.556C77.2845 107.068 77.3005 107.46 77.3325 107.732C77.3725 107.996 77.4205 108.18 77.4765 108.284C77.5325 108.388 77.5805 108.46 77.6205 108.5C77.6845 108.556 77.7645 108.596 77.8605 108.62C77.9565 108.636 78.0525 108.644 78.1485 108.644Z" fill="#0DC600"/>
</g>
<defs>
<clipPath id="clip0_257_6">
<rect width="100" height="114" fill="white"/>
</clipPath>
</defs>
</svg>
