<svg width="206" height="42" viewBox="0 0 206 42" fill="none" xmlns="http://www.w3.org/2000/svg">
<rect x="3.5" y="36.5" width="199" height="2.31492" rx="1.15746" fill="#A2FF9C" stroke="#0BA200"/>
<path d="M53.085 25.195C52.245 25.195 51.5 25.02 50.85 24.67C50.2 24.31 49.685 23.74 49.305 22.96C48.935 22.17 48.75 21.125 48.75 19.825C48.75 18.675 48.86 17.735 49.08 17.005C49.31 16.275 49.63 15.715 50.04 15.325C50.45 14.925 50.93 14.65 51.48 14.5C52.03 14.34 52.625 14.26 53.265 14.26C53.525 14.26 53.845 14.28 54.225 14.32C54.605 14.35 54.985 14.395 55.365 14.455C55.755 14.505 56.075 14.565 56.325 14.635L56.07 16.555C55.95 16.535 55.765 16.515 55.515 16.495C55.265 16.475 54.995 16.45 54.705 16.42C54.415 16.39 54.145 16.37 53.895 16.36C53.655 16.34 53.475 16.33 53.355 16.33C52.945 16.33 52.62 16.355 52.38 16.405C52.15 16.445 51.98 16.51 51.87 16.6C51.74 16.7 51.625 16.875 51.525 17.125C51.425 17.365 51.345 17.705 51.285 18.145C51.225 18.585 51.195 19.16 51.195 19.87C51.195 20.75 51.275 21.445 51.435 21.955C51.595 22.455 51.76 22.77 51.93 22.9C52.04 22.98 52.18 23.045 52.35 23.095C52.52 23.145 52.735 23.17 52.995 23.17C53.315 23.17 53.65 23.13 54 23.05C54.36 22.97 54.695 22.88 55.005 22.78C55.315 22.67 55.57 22.575 55.77 22.495C55.97 22.415 56.07 22.375 56.07 22.375L56.745 24.16C56.745 24.16 56.655 24.215 56.475 24.325C56.295 24.425 56.04 24.545 55.71 24.685C55.38 24.815 54.99 24.93 54.54 25.03C54.1 25.14 53.615 25.195 53.085 25.195ZM60.7225 25.195C60.0525 25.195 59.5375 25.055 59.1775 24.775C58.8275 24.485 58.5875 24.095 58.4575 23.605C58.3275 23.105 58.2625 22.545 58.2625 21.925V16.18H60.5875V21.7C60.5875 22.13 60.6025 22.435 60.6325 22.615C60.6625 22.795 60.7125 22.92 60.7825 22.99C60.8625 23.06 60.9525 23.11 61.0525 23.14C61.1525 23.16 61.2725 23.17 61.4125 23.17C61.7025 23.17 62.0175 23.105 62.3575 22.975C62.7075 22.845 63.0025 22.7 63.2425 22.54V16.18H65.5675V25H64.0825L63.7975 24.085H63.7075C63.4475 24.245 63.1575 24.41 62.8375 24.58C62.5175 24.75 62.1775 24.895 61.8175 25.015C61.4675 25.135 61.1025 25.195 60.7225 25.195ZM67.935 25V16.18H69.375L69.675 17.11H69.765C69.765 17.11 69.835 17.055 69.975 16.945C70.125 16.825 70.32 16.695 70.56 16.555C70.8 16.405 71.06 16.275 71.34 16.165C71.62 16.045 71.895 15.985 72.165 15.985C72.515 15.985 72.765 16.015 72.915 16.075C73.065 16.125 73.14 16.15 73.14 16.15L72.96 18.16C72.96 18.16 72.87 18.155 72.69 18.145C72.52 18.125 72.335 18.115 72.135 18.115C71.885 18.115 71.64 18.145 71.4 18.205C71.17 18.255 70.96 18.32 70.77 18.4C70.58 18.48 70.41 18.565 70.26 18.655V25H67.935ZM78.0253 25.21C77.2153 25.21 76.5003 25.06 75.8803 24.76C75.2703 24.46 74.7953 23.97 74.4553 23.29C74.1153 22.61 73.9453 21.705 73.9453 20.575C73.9453 19.395 74.1253 18.475 74.4853 17.815C74.8453 17.145 75.3303 16.67 75.9403 16.39C76.5503 16.11 77.2353 15.97 77.9953 15.97C78.7753 15.97 79.4353 16.105 79.9753 16.375C80.5153 16.645 80.9253 17.085 81.2053 17.695C81.4953 18.305 81.6403 19.125 81.6403 20.155V21.4H75.2503L76.3003 21.07C76.3003 21.43 76.3153 21.745 76.3453 22.015C76.3753 22.275 76.4253 22.495 76.4953 22.675C76.5653 22.845 76.6553 22.98 76.7653 23.08C76.8653 23.17 76.9903 23.24 77.1403 23.29C77.3003 23.34 77.5053 23.365 77.7553 23.365C78.0253 23.365 78.3253 23.34 78.6553 23.29C78.9853 23.23 79.3053 23.16 79.6153 23.08C79.9353 23 80.2103 22.93 80.4403 22.87C80.6703 22.8 80.8253 22.75 80.9053 22.72L81.4753 24.4C81.3853 24.44 81.1653 24.53 80.8153 24.67C80.4753 24.8 80.0603 24.92 79.5703 25.03C79.0903 25.15 78.5753 25.21 78.0253 25.21ZM76.3003 20.05L75.2653 19.735L80.3203 19.645L79.2703 19.975C79.2703 19.495 79.2503 19.1 79.2103 18.79C79.1703 18.48 79.1003 18.26 79.0003 18.13C78.9303 18.05 78.8253 17.975 78.6853 17.905C78.5453 17.835 78.3153 17.8 77.9953 17.8C77.6153 17.8 77.3303 17.84 77.1403 17.92C76.9503 17.99 76.8053 18.08 76.7053 18.19C76.4353 18.47 76.3003 19.09 76.3003 20.05ZM83.5502 25V16.18H85.0352L85.3052 17.065H85.3952C85.5952 16.945 85.8102 16.825 86.0402 16.705C86.2802 16.575 86.5352 16.455 86.8052 16.345C87.0752 16.235 87.3602 16.15 87.6602 16.09C87.9602 16.02 88.2752 15.985 88.6052 15.985C89.2252 15.985 89.6952 16.125 90.0152 16.405C90.3352 16.685 90.5552 17.07 90.6752 17.56C90.7952 18.05 90.8552 18.605 90.8552 19.225V25H88.5302V19.66C88.5302 19.25 88.5202 18.94 88.5002 18.73C88.4802 18.52 88.4202 18.355 88.3202 18.235C88.2602 18.155 88.1802 18.1 88.0802 18.07C87.9802 18.03 87.8602 18.01 87.7202 18.01C87.5302 18.01 87.3202 18.04 87.0902 18.1C86.8702 18.16 86.6502 18.24 86.4302 18.34C86.2202 18.43 86.0352 18.53 85.8752 18.64V25H83.5502ZM95.7128 25.195C95.1828 25.195 94.7278 25.115 94.3478 24.955C93.9778 24.795 93.6928 24.49 93.4928 24.04C93.3028 23.58 93.2078 22.915 93.2078 22.045V18.355H92.1878V16.9L93.3128 16.69L93.6578 14.605H95.5628V16.615H97.3628V18.4H95.5328V22.105C95.5328 22.445 95.5528 22.695 95.5928 22.855C95.6428 23.015 95.7128 23.115 95.8028 23.155C95.9028 23.195 96.0278 23.215 96.1778 23.215C96.3278 23.215 96.4928 23.21 96.6728 23.2C96.8528 23.18 97.0078 23.165 97.1378 23.155C97.2678 23.145 97.3328 23.14 97.3328 23.14V25.03C97.3328 25.03 97.1728 25.055 96.8528 25.105C96.5328 25.165 96.1528 25.195 95.7128 25.195ZM106.502 25.195C106.142 25.195 105.772 25.185 105.392 25.165C105.012 25.155 104.647 25.135 104.297 25.105C103.957 25.085 103.662 25.06 103.412 25.03C103.172 25.01 103.007 24.995 102.917 24.985V14.455C103.067 14.445 103.282 14.43 103.562 14.41C103.842 14.39 104.157 14.37 104.507 14.35C104.867 14.32 105.232 14.3 105.602 14.29C105.982 14.27 106.332 14.26 106.652 14.26C107.562 14.26 108.302 14.4 108.872 14.68C109.452 14.96 109.897 15.345 110.207 15.835C110.517 16.325 110.727 16.895 110.837 17.545C110.957 18.185 111.017 18.87 111.017 19.6C111.017 20.99 110.827 22.095 110.447 22.915C110.067 23.735 109.537 24.32 108.857 24.67C108.187 25.02 107.402 25.195 106.502 25.195ZM106.622 23.17C106.972 23.17 107.247 23.145 107.447 23.095C107.647 23.035 107.792 22.965 107.882 22.885C108.002 22.785 108.112 22.62 108.212 22.39C108.322 22.15 108.407 21.805 108.467 21.355C108.537 20.895 108.572 20.29 108.572 19.54C108.572 18.78 108.522 18.13 108.422 17.59C108.322 17.05 108.157 16.7 107.927 16.54C107.857 16.49 107.732 16.435 107.552 16.375C107.382 16.315 107.092 16.285 106.682 16.285C106.192 16.285 105.827 16.3 105.587 16.33C105.357 16.36 105.147 16.395 104.957 16.435L105.257 15.325V24.145L104.957 23.05C105.167 23.08 105.382 23.11 105.602 23.14C105.832 23.16 106.172 23.17 106.622 23.17ZM115.095 25.195C114.615 25.195 114.18 25.085 113.79 24.865C113.41 24.635 113.105 24.305 112.875 23.875C112.645 23.445 112.53 22.925 112.53 22.315C112.53 21.585 112.695 21.015 113.025 20.605C113.355 20.185 113.82 19.885 114.42 19.705C115.02 19.525 115.73 19.435 116.55 19.435H117.675C117.675 19.005 117.655 18.7 117.615 18.52C117.575 18.34 117.53 18.21 117.48 18.13C117.44 18.06 117.36 17.995 117.24 17.935C117.13 17.875 116.9 17.845 116.55 17.845C116.19 17.845 115.815 17.875 115.425 17.935C115.045 17.995 114.69 18.065 114.36 18.145C114.03 18.225 113.76 18.295 113.55 18.355C113.34 18.415 113.235 18.445 113.235 18.445L112.755 16.765C112.755 16.765 112.855 16.725 113.055 16.645C113.265 16.565 113.545 16.475 113.895 16.375C114.255 16.275 114.66 16.185 115.11 16.105C115.57 16.025 116.055 15.985 116.565 15.985C117.425 15.985 118.105 16.12 118.605 16.39C119.105 16.65 119.46 17.03 119.67 17.53C119.89 18.02 120 18.61 120 19.3V25H118.53L118.23 24.025H118.14C118.14 24.025 118.05 24.085 117.87 24.205C117.7 24.325 117.47 24.46 117.18 24.61C116.89 24.76 116.565 24.895 116.205 25.015C115.845 25.135 115.475 25.195 115.095 25.195ZM115.77 23.29C116.05 23.29 116.335 23.245 116.625 23.155C116.925 23.055 117.175 22.96 117.375 22.87C117.575 22.77 117.675 22.72 117.675 22.72V21.16C117.675 21.16 117.555 21.15 117.315 21.13C117.075 21.1 116.765 21.085 116.385 21.085C115.725 21.085 115.315 21.16 115.155 21.31C115.085 21.37 115.025 21.475 114.975 21.625C114.925 21.765 114.9 21.965 114.9 22.225C114.9 22.595 114.965 22.865 115.095 23.035C115.235 23.205 115.46 23.29 115.77 23.29ZM122.266 25V16.18H124.591V25H122.266ZM122.206 14.98V13.36H124.651V14.98H122.206ZM126.864 25V13.585H129.189V25H126.864ZM131.975 27.49L133.265 24.28L130.295 16.18H132.695L134.285 22.06H134.375L135.92 16.18H138.335L135.26 24.58L134.39 27.49H131.975ZM143.405 25L143.465 20.14L143.405 14.455H145.775L145.73 19.15L145.775 25H143.405ZM148.208 25V16.18H149.693L149.963 17.065H150.053C150.253 16.945 150.468 16.825 150.698 16.705C150.938 16.575 151.193 16.455 151.463 16.345C151.733 16.235 152.018 16.15 152.318 16.09C152.618 16.02 152.933 15.985 153.263 15.985C153.883 15.985 154.353 16.125 154.673 16.405C154.993 16.685 155.213 17.07 155.333 17.56C155.453 18.05 155.513 18.605 155.513 19.225V25H153.188V19.66C153.188 19.25 153.178 18.94 153.158 18.73C153.138 18.52 153.078 18.355 152.978 18.235C152.918 18.155 152.838 18.1 152.738 18.07C152.638 18.03 152.518 18.01 152.378 18.01C152.188 18.01 151.978 18.04 151.748 18.1C151.528 18.16 151.308 18.24 151.088 18.34C150.878 18.43 150.693 18.53 150.533 18.64V25H148.208ZM161.211 25.195C160.431 25.195 159.741 25.04 159.141 24.73C158.541 24.41 158.071 23.91 157.731 23.23C157.391 22.55 157.221 21.66 157.221 20.56C157.221 19.65 157.336 18.9 157.566 18.31C157.796 17.71 158.111 17.245 158.511 16.915C158.921 16.575 159.391 16.335 159.921 16.195C160.451 16.055 161.011 15.985 161.601 15.985C162.161 15.985 162.666 16.025 163.116 16.105C163.576 16.185 163.916 16.255 164.136 16.315L163.881 18.07C163.591 18.02 163.211 17.97 162.741 17.92C162.281 17.86 161.846 17.83 161.436 17.83C161.016 17.83 160.716 17.865 160.536 17.935C160.366 17.995 160.236 18.07 160.146 18.16C159.966 18.35 159.826 18.645 159.726 19.045C159.636 19.445 159.591 19.95 159.591 20.56C159.591 21.14 159.626 21.605 159.696 21.955C159.776 22.295 159.871 22.555 159.981 22.735C160.101 22.915 160.211 23.045 160.311 23.125C160.371 23.165 160.461 23.215 160.581 23.275C160.711 23.325 160.886 23.35 161.106 23.35C161.346 23.35 161.611 23.315 161.901 23.245C162.201 23.165 162.491 23.08 162.771 22.99C163.051 22.89 163.281 22.805 163.461 22.735C163.641 22.665 163.731 22.63 163.731 22.63L164.361 24.28C164.361 24.28 164.231 24.36 163.971 24.52C163.721 24.67 163.361 24.82 162.891 24.97C162.421 25.12 161.861 25.195 161.211 25.195ZM169.265 25.195C168.295 25.195 167.525 25.01 166.955 24.64C166.385 24.26 165.98 23.725 165.74 23.035C165.5 22.345 165.38 21.525 165.38 20.575C165.38 19.635 165.5 18.825 165.74 18.145C165.98 17.455 166.385 16.925 166.955 16.555C167.525 16.175 168.295 15.985 169.265 15.985C170.245 15.985 171.015 16.175 171.575 16.555C172.135 16.925 172.53 17.455 172.76 18.145C173 18.825 173.12 19.64 173.12 20.59C173.12 21.53 173 22.345 172.76 23.035C172.53 23.725 172.135 24.26 171.575 24.64C171.015 25.01 170.245 25.195 169.265 25.195ZM169.265 23.425C169.555 23.425 169.795 23.385 169.985 23.305C170.175 23.225 170.325 23.08 170.435 22.87C170.555 22.66 170.635 22.37 170.675 22C170.725 21.63 170.75 21.16 170.75 20.59C170.75 20.01 170.725 19.535 170.675 19.165C170.625 18.795 170.545 18.51 170.435 18.31C170.325 18.1 170.175 17.955 169.985 17.875C169.795 17.795 169.555 17.755 169.265 17.755C168.975 17.755 168.73 17.795 168.53 17.875C168.34 17.955 168.185 18.1 168.065 18.31C167.955 18.51 167.875 18.795 167.825 19.165C167.775 19.535 167.75 20.01 167.75 20.59C167.75 21.16 167.775 21.63 167.825 22C167.875 22.37 167.955 22.66 168.065 22.87C168.185 23.08 168.34 23.225 168.53 23.305C168.73 23.385 168.975 23.425 169.265 23.425ZM175.03 25V16.18H176.515L176.785 17.065H176.875C177.055 16.955 177.255 16.84 177.475 16.72C177.705 16.59 177.945 16.47 178.195 16.36C178.455 16.24 178.73 16.145 179.02 16.075C179.31 15.995 179.61 15.955 179.92 15.955C180.42 15.955 180.825 16.06 181.135 16.27C181.445 16.47 181.685 16.745 181.855 17.095C182.255 16.835 182.7 16.58 183.19 16.33C183.69 16.08 184.24 15.955 184.84 15.955C185.46 15.955 185.94 16.1 186.28 16.39C186.62 16.67 186.855 17.055 186.985 17.545C187.125 18.035 187.195 18.595 187.195 19.225V25H184.84V19.63C184.84 19.22 184.83 18.915 184.81 18.715C184.79 18.505 184.73 18.34 184.63 18.22C184.57 18.14 184.485 18.08 184.375 18.04C184.265 18 184.14 17.98 184 17.98C183.87 17.98 183.725 18 183.565 18.04C183.405 18.07 183.245 18.12 183.085 18.19C182.925 18.25 182.77 18.32 182.62 18.4C182.48 18.47 182.35 18.545 182.23 18.625C182.24 18.745 182.245 18.87 182.245 19C182.255 19.12 182.26 19.245 182.26 19.375V25H179.935V19.63C179.935 19.22 179.925 18.91 179.905 18.7C179.885 18.49 179.825 18.325 179.725 18.205C179.655 18.115 179.565 18.055 179.455 18.025C179.345 17.995 179.235 17.98 179.125 17.98C178.945 17.98 178.745 18.01 178.525 18.07C178.315 18.13 178.105 18.21 177.895 18.31C177.695 18.4 177.515 18.5 177.355 18.61V25H175.03ZM193.016 25.21C192.206 25.21 191.491 25.06 190.871 24.76C190.261 24.46 189.786 23.97 189.446 23.29C189.106 22.61 188.936 21.705 188.936 20.575C188.936 19.395 189.116 18.475 189.476 17.815C189.836 17.145 190.321 16.67 190.931 16.39C191.541 16.11 192.226 15.97 192.986 15.97C193.766 15.97 194.426 16.105 194.966 16.375C195.506 16.645 195.916 17.085 196.196 17.695C196.486 18.305 196.631 19.125 196.631 20.155V21.4H190.241L191.291 21.07C191.291 21.43 191.306 21.745 191.336 22.015C191.366 22.275 191.416 22.495 191.486 22.675C191.556 22.845 191.646 22.98 191.756 23.08C191.856 23.17 191.981 23.24 192.131 23.29C192.291 23.34 192.496 23.365 192.746 23.365C193.016 23.365 193.316 23.34 193.646 23.29C193.976 23.23 194.296 23.16 194.606 23.08C194.926 23 195.201 22.93 195.431 22.87C195.661 22.8 195.816 22.75 195.896 22.72L196.466 24.4C196.376 24.44 196.156 24.53 195.806 24.67C195.466 24.8 195.051 24.92 194.561 25.03C194.081 25.15 193.566 25.21 193.016 25.21ZM191.291 20.05L190.256 19.735L195.311 19.645L194.261 19.975C194.261 19.495 194.241 19.1 194.201 18.79C194.161 18.48 194.091 18.26 193.991 18.13C193.921 18.05 193.816 17.975 193.676 17.905C193.536 17.835 193.306 17.8 192.986 17.8C192.606 17.8 192.321 17.84 192.131 17.92C191.941 17.99 191.796 18.08 191.696 18.19C191.426 18.47 191.291 19.09 191.291 20.05Z" fill="#0DC600"/>
<path d="M8.6875 10.125H31.0234C32.4161 10.125 33.5 11.189 33.5 12.4375V27.4375C33.5 28.686 32.4161 29.75 31.0234 29.75H7.75C5.95485 29.75 4.5 28.2951 4.5 26.5V7.75C4.5 5.95485 5.95485 4.5 7.75 4.5H29.3125C30.5897 4.5 31.625 5.53532 31.625 6.8125C31.625 7.05433 31.4293 7.25 31.1875 7.25H8.6875C7.89339 7.25 7.25 7.89339 7.25 8.6875C7.25 9.48161 7.89339 10.125 8.6875 10.125ZM26 19.9375C26 21.249 27.0635 22.3125 28.375 22.3125C29.6865 22.3125 30.75 21.249 30.75 19.9375C30.75 18.626 29.6865 17.5625 28.375 17.5625C27.0635 17.5625 26 18.626 26 19.9375Z" fill="#A2FF9C" stroke="#0BA200"/>
</svg>
