<svg width="25" height="29" viewBox="0 0 25 29" fill="none" xmlns="http://www.w3.org/2000/svg">
<path d="M25 4.08164V6.63265C25 8.88075 19.4011 10.7143 12.5 10.7143C5.59894 10.7143 0 8.88075 0 6.63265V4.08164C0 1.83354 5.59894 0 12.5 0C19.4011 0 25 1.83354 25 4.08164ZM25 9.82143V15.5612C25 17.8093 19.4011 19.6429 12.5 19.6429C5.59894 19.6429 0 17.8093 0 15.5612V9.82143C2.68555 11.6709 7.60089 12.5319 12.5 12.5319C17.3991 12.5319 22.3144 11.6709 25 9.82143ZM25 18.75V24.4898C25 26.7379 19.4011 28.5714 12.5 28.5714C5.59894 28.5714 0 26.7379 0 24.4898V18.75C2.68555 20.5995 7.60089 21.4605 12.5 21.4605C17.3991 21.4605 22.3144 20.5995 25 18.75Z" fill="white"/>
</svg>
