<svg width="21" height="19" viewBox="0 0 21 19" fill="none" xmlns="http://www.w3.org/2000/svg">
<path d="M20.4025 10.3755C21.1347 9.64327 21.1347 8.45608 20.4025 7.72386L14.1525 1.47387C13.4203 0.741641 12.2331 0.741602 11.5008 1.47387L1.50083 11.4739C0.768604 12.2061 0.768604 13.3933 1.50083 14.1255L5.25082 17.8755C5.60247 18.2271 6.07939 18.4247 6.57668 18.4247H20.4829C20.7418 18.4247 20.9517 18.2148 20.9517 17.9559V16.3934C20.9517 16.1345 20.7418 15.9247 20.4829 15.9247H14.8533L20.4025 10.3755ZM8.58113 7.92913L13.9473 13.2953L11.3178 15.9247H6.83559L3.71059 12.7997L8.58113 7.92913Z" fill="white"/>
</svg>
