<svg width="25" height="25" viewBox="0 0 25 25" fill="none" xmlns="http://www.w3.org/2000/svg">
<path d="M25 12.4764C25.0127 19.3634 19.3962 24.9951 12.5091 24.9999C9.53452 25.002 6.80226 23.9652 4.65514 22.2322C4.09682 21.7816 4.05509 20.9449 4.56245 20.4375L5.13034 19.8696C5.56426 19.4357 6.257 19.3882 6.73775 19.7696C8.31965 21.0249 10.3216 21.7742 12.5 21.7742C17.6262 21.7742 21.7742 17.6254 21.7742 12.5C21.7742 7.37373 17.6254 3.2258 12.5 3.2258C10.0396 3.2258 7.80498 4.1819 6.14576 5.74254L8.70392 8.3007C9.21199 8.80876 8.85216 9.67741 8.13371 9.67741H0.806451C0.361038 9.67741 0 9.31637 0 8.87096V1.5437C0 0.825251 0.868648 0.465423 1.37671 0.973437L3.86522 3.46194C6.10932 1.31734 9.1508 0 12.5 0C19.3956 0 24.9872 5.58366 25 12.4764ZM15.8814 16.4473L16.3765 15.8107C16.7867 15.2834 16.6917 14.5233 16.1644 14.1132L14.1129 12.5176V7.25806C14.1129 6.58996 13.5713 6.04838 12.9032 6.04838H12.0968C11.4287 6.04838 10.8871 6.58996 10.8871 7.25806V14.0953L14.1839 16.6595C14.7113 17.0696 15.4713 16.9747 15.8814 16.4473Z" fill="white"/>
</svg>
