<svg width="26" height="17" viewBox="0 0 26 17" fill="none" xmlns="http://www.w3.org/2000/svg">
<path d="M1.0365 7.54642L9.23962 0.328636C9.97205 -0.315809 11.2416 0.135302 11.2416 1.05901V5.18346L17.8822 5.18346C18.5316 5.18346 19.0541 5.64316 19.0541 6.21457V10.339C19.0541 10.9104 18.5316 11.3701 17.8822 11.3701L11.2416 11.3701V15.4946C11.2416 16.414 9.97693 16.8694 9.23962 16.225L1.0365 9.00717C0.582397 8.60332 0.582397 7.95028 1.0365 7.54642ZM15.9291 0.543451V2.26197C15.9291 2.54553 16.1927 2.77753 16.515 2.77753L20.6166 2.77753C21.4808 2.77753 22.1791 3.3919 22.1791 4.15235V12.4012C22.1791 13.1617 21.4808 13.7761 20.6166 13.7761H16.515C16.1927 13.7761 15.9291 14.0081 15.9291 14.2916V16.0101C15.9291 16.2937 16.1927 16.5257 16.515 16.5257H20.6166C23.2045 16.5257 25.3041 14.6783 25.3041 12.4012V4.15235C25.3041 1.87531 23.2045 0.027895 20.6166 0.027895H16.515C16.1927 0.027895 15.9291 0.259895 15.9291 0.543451Z" fill="#0BA200"/>
</svg>
