<svg width="118" height="110" viewBox="0 0 118 110" fill="none" xmlns="http://www.w3.org/2000/svg">
<g clip-path="url(#clip0_257_3)">
<path d="M3.124 105L3.16 98.136L0.808 98.172V96.564H7.372V98.172L4.972 98.136L5.008 105H3.124ZM10.4496 105.156C9.67363 105.156 9.05763 105.008 8.60163 104.712C8.14563 104.408 7.82163 103.98 7.62963 103.428C7.43763 102.876 7.34163 102.22 7.34163 101.46C7.34163 100.708 7.43763 100.06 7.62963 99.516C7.82163 98.964 8.14563 98.54 8.60163 98.244C9.05763 97.94 9.67363 97.788 10.4496 97.788C11.2336 97.788 11.8496 97.94 12.2976 98.244C12.7456 98.54 13.0616 98.964 13.2456 99.516C13.4376 100.06 13.5336 100.712 13.5336 101.472C13.5336 102.224 13.4376 102.876 13.2456 103.428C13.0616 103.98 12.7456 104.408 12.2976 104.712C11.8496 105.008 11.2336 105.156 10.4496 105.156ZM10.4496 103.74C10.6816 103.74 10.8736 103.708 11.0256 103.644C11.1776 103.58 11.2976 103.464 11.3856 103.296C11.4816 103.128 11.5456 102.896 11.5776 102.6C11.6176 102.304 11.6376 101.928 11.6376 101.472C11.6376 101.008 11.6176 100.628 11.5776 100.332C11.5376 100.036 11.4736 99.808 11.3856 99.648C11.2976 99.48 11.1776 99.364 11.0256 99.3C10.8736 99.236 10.6816 99.204 10.4496 99.204C10.2176 99.204 10.0216 99.236 9.86163 99.3C9.70963 99.364 9.58563 99.48 9.48963 99.648C9.40163 99.808 9.33763 100.036 9.29763 100.332C9.25763 100.628 9.23763 101.008 9.23763 101.472C9.23763 101.928 9.25763 102.304 9.29763 102.6C9.33763 102.896 9.40163 103.128 9.48963 103.296C9.58563 103.464 9.70963 103.58 9.86163 103.644C10.0216 103.708 10.2176 103.74 10.4496 103.74ZM17.1253 105.156C16.6773 105.156 16.2693 105.028 15.9013 104.772C15.5333 104.516 15.2373 104.12 15.0133 103.584C14.7973 103.048 14.6893 102.36 14.6893 101.52C14.6893 100.76 14.7733 100.136 14.9413 99.648C15.1173 99.16 15.3453 98.78 15.6253 98.508C15.9133 98.236 16.2213 98.048 16.5493 97.944C16.8853 97.84 17.2133 97.788 17.5333 97.788C17.7573 97.788 17.9733 97.804 18.1813 97.836C18.3893 97.86 18.5613 97.888 18.6973 97.92C18.8333 97.952 18.9013 97.968 18.9013 97.968V95.868H20.7613V105H19.5613L19.3693 104.316H19.2973C19.1373 104.42 18.9453 104.54 18.7213 104.676C18.4973 104.804 18.2493 104.916 17.9773 105.012C17.7133 105.108 17.4293 105.156 17.1253 105.156ZM17.4493 103.644C17.5853 103.644 17.7373 103.624 17.9053 103.584C18.0733 103.536 18.2333 103.48 18.3853 103.416C18.5373 103.352 18.6613 103.3 18.7573 103.26C18.8533 103.212 18.9013 103.188 18.9013 103.188V99.564C18.9013 99.564 18.8333 99.544 18.6973 99.504C18.5693 99.456 18.4053 99.412 18.2053 99.372C18.0053 99.332 17.7973 99.312 17.5813 99.312C17.2693 99.312 17.0533 99.376 16.9333 99.504C16.8773 99.56 16.8213 99.664 16.7653 99.816C16.7173 99.968 16.6733 100.184 16.6333 100.464C16.6013 100.736 16.5853 101.1 16.5853 101.556C16.5853 102.068 16.6013 102.46 16.6333 102.732C16.6733 102.996 16.7213 103.18 16.7773 103.284C16.8333 103.388 16.8813 103.46 16.9213 103.5C16.9853 103.556 17.0653 103.596 17.1613 103.62C17.2573 103.636 17.3533 103.644 17.4493 103.644ZM24.3124 105.156C23.9284 105.156 23.5804 105.068 23.2684 104.892C22.9644 104.708 22.7204 104.444 22.5364 104.1C22.3524 103.756 22.2604 103.34 22.2604 102.852C22.2604 102.268 22.3924 101.812 22.6564 101.484C22.9204 101.148 23.2924 100.908 23.7724 100.764C24.2524 100.62 24.8204 100.548 25.4764 100.548H26.3764C26.3764 100.204 26.3604 99.96 26.3284 99.816C26.2964 99.672 26.2604 99.568 26.2204 99.504C26.1884 99.448 26.1244 99.396 26.0284 99.348C25.9404 99.3 25.7564 99.276 25.4764 99.276C25.1884 99.276 24.8884 99.3 24.5764 99.348C24.2724 99.396 23.9884 99.452 23.7244 99.516C23.4604 99.58 23.2444 99.636 23.0764 99.684C22.9084 99.732 22.8244 99.756 22.8244 99.756L22.4404 98.412C22.4404 98.412 22.5204 98.38 22.6804 98.316C22.8484 98.252 23.0724 98.18 23.3524 98.1C23.6404 98.02 23.9644 97.948 24.3244 97.884C24.6924 97.82 25.0804 97.788 25.4884 97.788C26.1764 97.788 26.7204 97.896 27.1204 98.112C27.5204 98.32 27.8044 98.624 27.9724 99.024C28.1484 99.416 28.2364 99.888 28.2364 100.44V105H27.0604L26.8204 104.22H26.7484C26.7484 104.22 26.6764 104.268 26.5324 104.364C26.3964 104.46 26.2124 104.568 25.9804 104.688C25.7484 104.808 25.4884 104.916 25.2004 105.012C24.9124 105.108 24.6164 105.156 24.3124 105.156ZM24.8524 103.632C25.0764 103.632 25.3044 103.596 25.5364 103.524C25.7764 103.444 25.9764 103.368 26.1364 103.296C26.2964 103.216 26.3764 103.176 26.3764 103.176V101.928C26.3764 101.928 26.2804 101.92 26.0884 101.904C25.8964 101.88 25.6484 101.868 25.3444 101.868C24.8164 101.868 24.4884 101.928 24.3604 102.048C24.3044 102.096 24.2564 102.18 24.2164 102.3C24.1764 102.412 24.1564 102.572 24.1564 102.78C24.1564 103.076 24.2084 103.292 24.3124 103.428C24.4244 103.564 24.6044 103.632 24.8524 103.632ZM30.4573 106.992L31.4893 104.424L29.1133 97.944H31.0333L32.3053 102.648H32.3773L33.6133 97.944H35.5453L33.0853 104.664L32.3893 106.992H30.4573ZM37.0109 99.828L36.0749 99.276C36.1629 99.092 36.2309 98.872 36.2789 98.616C36.3349 98.352 36.3629 98.044 36.3629 97.692C36.3629 97.564 36.3589 97.416 36.3509 97.248C36.3429 97.08 36.3349 96.92 36.3269 96.768C36.3189 96.608 36.3109 96.476 36.3029 96.372C36.2949 96.268 36.2909 96.216 36.2909 96.216H37.8629C37.8629 96.216 37.8709 96.312 37.8869 96.504C37.9109 96.696 37.9229 96.9 37.9229 97.116C37.9229 97.78 37.8229 98.34 37.6229 98.796C37.4229 99.252 37.2189 99.596 37.0109 99.828ZM41.7551 105.156C41.3871 105.156 41.0311 105.12 40.6871 105.048C40.3431 104.976 40.0351 104.896 39.7631 104.808C39.4911 104.72 39.2751 104.64 39.1151 104.568C38.9551 104.496 38.8751 104.46 38.8751 104.46L39.3311 102.996C39.3311 102.996 39.4111 103.028 39.5711 103.092C39.7391 103.156 39.9551 103.232 40.2191 103.32C40.4831 103.408 40.7591 103.484 41.0471 103.548C41.3431 103.612 41.6151 103.644 41.8631 103.644C41.9991 103.644 42.1071 103.632 42.1871 103.608C42.2751 103.584 42.3431 103.556 42.3911 103.524C42.4551 103.476 42.5031 103.408 42.5351 103.32C42.5751 103.232 42.5951 103.136 42.5951 103.032C42.5951 102.832 42.5311 102.68 42.4031 102.576C42.2751 102.464 42.1031 102.372 41.8871 102.3C41.6791 102.228 41.4431 102.156 41.1791 102.084C40.9231 102.004 40.6631 101.92 40.3991 101.832C40.1351 101.736 39.8911 101.612 39.6671 101.46C39.4511 101.3 39.2751 101.096 39.1391 100.848C39.0031 100.6 38.9351 100.28 38.9351 99.888C38.9351 99.256 39.1471 98.748 39.5711 98.364C39.9951 97.98 40.6751 97.788 41.6111 97.788C41.9631 97.788 42.3031 97.812 42.6311 97.86C42.9591 97.908 43.2511 97.964 43.5071 98.028C43.7631 98.092 43.9631 98.148 44.1071 98.196L43.8311 99.636C43.8311 99.636 43.7551 99.62 43.6031 99.588C43.4511 99.548 43.2551 99.504 43.0151 99.456C42.7751 99.408 42.5191 99.368 42.2471 99.336C41.9751 99.296 41.7191 99.276 41.4791 99.276C41.2791 99.276 41.1391 99.288 41.0591 99.312C40.9791 99.336 40.9191 99.364 40.8791 99.396C40.8471 99.42 40.8151 99.46 40.7831 99.516C40.7591 99.564 40.7471 99.632 40.7471 99.72C40.7471 99.896 40.8111 100.04 40.9391 100.152C41.0671 100.256 41.2351 100.344 41.4431 100.416C41.6591 100.488 41.8911 100.56 42.1391 100.632C42.3951 100.704 42.6551 100.784 42.9191 100.872C43.1911 100.952 43.4391 101.068 43.6631 101.22C43.8871 101.364 44.0671 101.564 44.2031 101.82C44.3391 102.068 44.4071 102.396 44.4071 102.804C44.4071 103.508 44.1791 104.076 43.7231 104.508C43.2671 104.94 42.6111 105.156 41.7551 105.156ZM49.999 105L50.035 98.136L47.683 98.172V96.564H54.247V98.172L51.847 98.136L51.883 105H49.999ZM54.8933 105V97.944H56.0453L56.2853 98.688H56.3573C56.3573 98.688 56.4133 98.644 56.5253 98.556C56.6453 98.46 56.8013 98.356 56.9933 98.244C57.1853 98.124 57.3933 98.02 57.6173 97.932C57.8413 97.836 58.0613 97.788 58.2773 97.788C58.5573 97.788 58.7573 97.812 58.8773 97.86C58.9973 97.9 59.0573 97.92 59.0573 97.92L58.9133 99.528C58.9133 99.528 58.8413 99.524 58.6973 99.516C58.5613 99.5 58.4133 99.492 58.2533 99.492C58.0533 99.492 57.8573 99.516 57.6653 99.564C57.4813 99.604 57.3133 99.656 57.1613 99.72C57.0093 99.784 56.8733 99.852 56.7533 99.924V105H54.8933ZM61.5898 105.156C61.2058 105.156 60.8578 105.068 60.5458 104.892C60.2418 104.708 59.9978 104.444 59.8138 104.1C59.6298 103.756 59.5378 103.34 59.5378 102.852C59.5378 102.268 59.6698 101.812 59.9338 101.484C60.1978 101.148 60.5698 100.908 61.0498 100.764C61.5298 100.62 62.0978 100.548 62.7538 100.548H63.6538C63.6538 100.204 63.6378 99.96 63.6058 99.816C63.5738 99.672 63.5378 99.568 63.4978 99.504C63.4658 99.448 63.4018 99.396 63.3058 99.348C63.2178 99.3 63.0338 99.276 62.7538 99.276C62.4658 99.276 62.1658 99.3 61.8538 99.348C61.5498 99.396 61.2658 99.452 61.0018 99.516C60.7378 99.58 60.5218 99.636 60.3538 99.684C60.1858 99.732 60.1018 99.756 60.1018 99.756L59.7178 98.412C59.7178 98.412 59.7978 98.38 59.9578 98.316C60.1258 98.252 60.3498 98.18 60.6298 98.1C60.9178 98.02 61.2418 97.948 61.6018 97.884C61.9698 97.82 62.3578 97.788 62.7658 97.788C63.4538 97.788 63.9978 97.896 64.3978 98.112C64.7978 98.32 65.0818 98.624 65.2498 99.024C65.4258 99.416 65.5138 99.888 65.5138 100.44V105H64.3378L64.0978 104.22H64.0258C64.0258 104.22 63.9538 104.268 63.8098 104.364C63.6738 104.46 63.4898 104.568 63.2578 104.688C63.0258 104.808 62.7658 104.916 62.4778 105.012C62.1898 105.108 61.8938 105.156 61.5898 105.156ZM62.1298 103.632C62.3538 103.632 62.5818 103.596 62.8138 103.524C63.0538 103.444 63.2538 103.368 63.4138 103.296C63.5738 103.216 63.6538 103.176 63.6538 103.176V101.928C63.6538 101.928 63.5578 101.92 63.3658 101.904C63.1738 101.88 62.9258 101.868 62.6218 101.868C62.0938 101.868 61.7658 101.928 61.6378 102.048C61.5818 102.096 61.5338 102.18 61.4938 102.3C61.4538 102.412 61.4338 102.572 61.4338 102.78C61.4338 103.076 61.4858 103.292 61.5898 103.428C61.7018 103.564 61.8818 103.632 62.1298 103.632ZM67.3386 105V97.944H68.5266L68.7426 98.652H68.8146C68.9746 98.556 69.1466 98.46 69.3306 98.364C69.5226 98.26 69.7266 98.164 69.9426 98.076C70.1586 97.988 70.3866 97.92 70.6266 97.872C70.8666 97.816 71.1186 97.788 71.3826 97.788C71.8786 97.788 72.2546 97.9 72.5106 98.124C72.7666 98.348 72.9426 98.656 73.0386 99.048C73.1346 99.44 73.1826 99.884 73.1826 100.38V105H71.3226V100.728C71.3226 100.4 71.3146 100.152 71.2986 99.984C71.2826 99.816 71.2346 99.684 71.1546 99.588C71.1066 99.524 71.0426 99.48 70.9626 99.456C70.8826 99.424 70.7866 99.408 70.6746 99.408C70.5226 99.408 70.3546 99.432 70.1706 99.48C69.9946 99.528 69.8186 99.592 69.6426 99.672C69.4746 99.744 69.3266 99.824 69.1986 99.912V105H67.3386ZM77.3567 105.156C76.9887 105.156 76.6327 105.12 76.2887 105.048C75.9447 104.976 75.6367 104.896 75.3647 104.808C75.0927 104.72 74.8767 104.64 74.7167 104.568C74.5567 104.496 74.4767 104.46 74.4767 104.46L74.9327 102.996C74.9327 102.996 75.0127 103.028 75.1727 103.092C75.3407 103.156 75.5567 103.232 75.8207 103.32C76.0847 103.408 76.3607 103.484 76.6487 103.548C76.9447 103.612 77.2167 103.644 77.4647 103.644C77.6007 103.644 77.7087 103.632 77.7887 103.608C77.8767 103.584 77.9447 103.556 77.9927 103.524C78.0567 103.476 78.1047 103.408 78.1367 103.32C78.1767 103.232 78.1967 103.136 78.1967 103.032C78.1967 102.832 78.1327 102.68 78.0047 102.576C77.8767 102.464 77.7047 102.372 77.4887 102.3C77.2807 102.228 77.0447 102.156 76.7807 102.084C76.5247 102.004 76.2647 101.92 76.0007 101.832C75.7367 101.736 75.4927 101.612 75.2687 101.46C75.0527 101.3 74.8767 101.096 74.7407 100.848C74.6047 100.6 74.5367 100.28 74.5367 99.888C74.5367 99.256 74.7487 98.748 75.1727 98.364C75.5967 97.98 76.2767 97.788 77.2127 97.788C77.5647 97.788 77.9047 97.812 78.2327 97.86C78.5607 97.908 78.8527 97.964 79.1087 98.028C79.3647 98.092 79.5647 98.148 79.7087 98.196L79.4327 99.636C79.4327 99.636 79.3567 99.62 79.2047 99.588C79.0527 99.548 78.8567 99.504 78.6167 99.456C78.3767 99.408 78.1207 99.368 77.8487 99.336C77.5767 99.296 77.3207 99.276 77.0807 99.276C76.8807 99.276 76.7407 99.288 76.6607 99.312C76.5807 99.336 76.5207 99.364 76.4807 99.396C76.4487 99.42 76.4167 99.46 76.3847 99.516C76.3607 99.564 76.3487 99.632 76.3487 99.72C76.3487 99.896 76.4127 100.04 76.5407 100.152C76.6687 100.256 76.8367 100.344 77.0447 100.416C77.2607 100.488 77.4927 100.56 77.7407 100.632C77.9967 100.704 78.2567 100.784 78.5207 100.872C78.7927 100.952 79.0407 101.068 79.2647 101.22C79.4887 101.364 79.6687 101.564 79.8047 101.82C79.9407 102.068 80.0087 102.396 80.0087 102.804C80.0087 103.508 79.7807 104.076 79.3247 104.508C78.8687 104.94 78.2127 105.156 77.3567 105.156ZM83.082 105.156C82.698 105.156 82.35 105.068 82.038 104.892C81.734 104.708 81.49 104.444 81.306 104.1C81.122 103.756 81.03 103.34 81.03 102.852C81.03 102.268 81.162 101.812 81.426 101.484C81.69 101.148 82.062 100.908 82.542 100.764C83.022 100.62 83.59 100.548 84.246 100.548H85.146C85.146 100.204 85.13 99.96 85.098 99.816C85.066 99.672 85.03 99.568 84.99 99.504C84.958 99.448 84.894 99.396 84.798 99.348C84.71 99.3 84.526 99.276 84.246 99.276C83.958 99.276 83.658 99.3 83.346 99.348C83.042 99.396 82.758 99.452 82.494 99.516C82.23 99.58 82.014 99.636 81.846 99.684C81.678 99.732 81.594 99.756 81.594 99.756L81.21 98.412C81.21 98.412 81.29 98.38 81.45 98.316C81.618 98.252 81.842 98.18 82.122 98.1C82.41 98.02 82.734 97.948 83.094 97.884C83.462 97.82 83.85 97.788 84.258 97.788C84.946 97.788 85.49 97.896 85.89 98.112C86.29 98.32 86.574 98.624 86.742 99.024C86.918 99.416 87.006 99.888 87.006 100.44V105H85.83L85.59 104.22H85.518C85.518 104.22 85.446 104.268 85.302 104.364C85.166 104.46 84.982 104.568 84.75 104.688C84.518 104.808 84.258 104.916 83.97 105.012C83.682 105.108 83.386 105.156 83.082 105.156ZM83.622 103.632C83.846 103.632 84.074 103.596 84.306 103.524C84.546 103.444 84.746 103.368 84.906 103.296C85.066 103.216 85.146 103.176 85.146 103.176V101.928C85.146 101.928 85.05 101.92 84.858 101.904C84.666 101.88 84.418 101.868 84.114 101.868C83.586 101.868 83.258 101.928 83.13 102.048C83.074 102.096 83.026 102.18 82.986 102.3C82.946 102.412 82.926 102.572 82.926 102.78C82.926 103.076 82.978 103.292 83.082 103.428C83.194 103.564 83.374 103.632 83.622 103.632ZM91.6508 105.156C91.0268 105.156 90.4748 105.032 89.9948 104.784C89.5148 104.528 89.1388 104.128 88.8668 103.584C88.5948 103.04 88.4588 102.328 88.4588 101.448C88.4588 100.72 88.5508 100.12 88.7348 99.648C88.9188 99.168 89.1708 98.796 89.4908 98.532C89.8188 98.26 90.1948 98.068 90.6188 97.956C91.0428 97.844 91.4908 97.788 91.9628 97.788C92.4108 97.788 92.8148 97.82 93.1748 97.884C93.5428 97.948 93.8148 98.004 93.9908 98.052L93.7868 99.456C93.5548 99.416 93.2508 99.376 92.8748 99.336C92.5068 99.288 92.1588 99.264 91.8308 99.264C91.4948 99.264 91.2548 99.292 91.1108 99.348C90.9748 99.396 90.8708 99.456 90.7988 99.528C90.6548 99.68 90.5428 99.916 90.4628 100.236C90.3908 100.556 90.3548 100.96 90.3548 101.448C90.3548 101.912 90.3828 102.284 90.4388 102.564C90.5028 102.836 90.5788 103.044 90.6668 103.188C90.7628 103.332 90.8508 103.436 90.9308 103.5C90.9788 103.532 91.0508 103.572 91.1468 103.62C91.2508 103.66 91.3908 103.68 91.5668 103.68C91.7588 103.68 91.9708 103.652 92.2028 103.596C92.4428 103.532 92.6748 103.464 92.8988 103.392C93.1228 103.312 93.3068 103.244 93.4508 103.188C93.5948 103.132 93.6668 103.104 93.6668 103.104L94.1708 104.424C94.1708 104.424 94.0668 104.488 93.8588 104.616C93.6588 104.736 93.3708 104.856 92.9948 104.976C92.6188 105.096 92.1708 105.156 91.6508 105.156ZM97.5062 105.156C97.0822 105.156 96.7182 105.092 96.4142 104.964C96.1182 104.836 95.8902 104.592 95.7302 104.232C95.5782 103.864 95.5022 103.332 95.5022 102.636V99.684H94.6862V98.52L95.5862 98.352L95.8622 96.684H97.3862V98.292H98.8262V99.72H97.3622V102.684C97.3622 102.956 97.3782 103.156 97.4102 103.284C97.4502 103.412 97.5062 103.492 97.5782 103.524C97.6582 103.556 97.7582 103.572 97.8782 103.572C97.9982 103.572 98.1302 103.568 98.2742 103.56C98.4182 103.544 98.5422 103.532 98.6462 103.524C98.7502 103.516 98.8022 103.512 98.8022 103.512V105.024C98.8022 105.024 98.6742 105.044 98.4182 105.084C98.1622 105.132 97.8582 105.156 97.5062 105.156ZM100.151 105V97.944H102.011V105H100.151ZM100.103 96.984V95.688H102.059V96.984H100.103ZM106.625 105.156C105.849 105.156 105.233 105.008 104.777 104.712C104.321 104.408 103.997 103.98 103.805 103.428C103.613 102.876 103.517 102.22 103.517 101.46C103.517 100.708 103.613 100.06 103.805 99.516C103.997 98.964 104.321 98.54 104.777 98.244C105.233 97.94 105.849 97.788 106.625 97.788C107.409 97.788 108.025 97.94 108.473 98.244C108.921 98.54 109.237 98.964 109.421 99.516C109.613 100.06 109.709 100.712 109.709 101.472C109.709 102.224 109.613 102.876 109.421 103.428C109.237 103.98 108.921 104.408 108.473 104.712C108.025 105.008 107.409 105.156 106.625 105.156ZM106.625 103.74C106.857 103.74 107.049 103.708 107.201 103.644C107.353 103.58 107.473 103.464 107.561 103.296C107.657 103.128 107.721 102.896 107.753 102.6C107.793 102.304 107.813 101.928 107.813 101.472C107.813 101.008 107.793 100.628 107.753 100.332C107.713 100.036 107.649 99.808 107.561 99.648C107.473 99.48 107.353 99.364 107.201 99.3C107.049 99.236 106.857 99.204 106.625 99.204C106.393 99.204 106.197 99.236 106.037 99.3C105.885 99.364 105.761 99.48 105.665 99.648C105.577 99.808 105.513 100.036 105.473 100.332C105.433 100.628 105.413 101.008 105.413 101.472C105.413 101.928 105.433 102.304 105.473 102.6C105.513 102.896 105.577 103.128 105.665 103.296C105.761 103.464 105.885 103.58 106.037 103.644C106.197 103.708 106.393 103.74 106.625 103.74ZM111.237 105V97.944H112.425L112.641 98.652H112.713C112.873 98.556 113.045 98.46 113.229 98.364C113.421 98.26 113.625 98.164 113.841 98.076C114.057 97.988 114.285 97.92 114.525 97.872C114.765 97.816 115.017 97.788 115.281 97.788C115.777 97.788 116.153 97.9 116.409 98.124C116.665 98.348 116.841 98.656 116.937 99.048C117.033 99.44 117.081 99.884 117.081 100.38V105H115.221V100.728C115.221 100.4 115.213 100.152 115.197 99.984C115.181 99.816 115.133 99.684 115.053 99.588C115.005 99.524 114.941 99.48 114.861 99.456C114.781 99.424 114.685 99.408 114.573 99.408C114.421 99.408 114.253 99.432 114.069 99.48C113.893 99.528 113.717 99.592 113.541 99.672C113.373 99.744 113.225 99.824 113.097 99.912V105H111.237Z" fill="#0DC600"/>
<rect x="18.2549" y="87.8396" width="79.2462" height="1.6601" rx="0.830048" fill="#A2FF9C" stroke="#0BA200"/>
<rect x="25.2764" width="65.4909" height="83.9731" rx="16.5517" fill="white" stroke="#0BA200"/>
<path d="M32.1064 19.8416C32.1064 13.7474 37.0468 8.80713 43.1409 8.80713L73.304 8.80713C79.3982 8.80713 84.3385 13.7474 84.3385 19.8416V63.6654C84.3385 69.7595 79.3982 74.6999 73.304 74.6999H43.1409C37.0468 74.6999 32.1064 69.7596 32.1064 63.6654V19.8416Z" fill="#A2FF9C" stroke="#0BA200"/>
<rect x="65.5371" y="3.71436" width="3.82142" height="8.31034" rx="1.91071" transform="rotate(90 65.5371 3.71436)" fill="#A2FF9C" stroke="#0BA200"/>
<rect x="54.5088" y="3.71436" width="3.82142" height="3.82142" rx="1.91071" transform="rotate(90 54.5088 3.71436)" fill="#A2FF9C" stroke="#0BA200"/>
<rect x="46.1836" y="40.374" width="23.8276" height="7.86699" rx="3.93349" fill="white" stroke="#0BA200"/>
<mask id="path-8-outside-1_257_3" maskUnits="userSpaceOnUse" x="49.6006" y="41.6001" width="17" height="6" fill="black">
<rect fill="white" x="49.6006" y="41.6001" width="17" height="6"/>
<path d="M51.4061 43.3651C51.4961 43.2084 51.6294 43.0784 51.8061 42.9751C51.9861 42.8684 52.1944 42.8151 52.4311 42.8151C52.6744 42.8151 52.8944 42.8734 53.0911 42.9901C53.2911 43.1068 53.4478 43.2718 53.5611 43.4851C53.6744 43.6951 53.7311 43.9401 53.7311 44.2201C53.7311 44.4968 53.6744 44.7434 53.5611 44.9601C53.4478 45.1768 53.2911 45.3451 53.0911 45.4651C52.8944 45.5851 52.6744 45.6451 52.4311 45.6451C52.1978 45.6451 51.9911 45.5934 51.8111 45.4901C51.6344 45.3834 51.4994 45.2518 51.4061 45.0951V46.9001H50.9511V42.8601H51.4061V43.3651ZM53.2661 44.2201C53.2661 44.0134 53.2244 43.8334 53.1411 43.6801C53.0578 43.5268 52.9444 43.4101 52.8011 43.3301C52.6611 43.2501 52.5061 43.2101 52.3361 43.2101C52.1694 43.2101 52.0144 43.2518 51.8711 43.3351C51.7311 43.4151 51.6178 43.5334 51.5311 43.6901C51.4478 43.8434 51.4061 44.0218 51.4061 44.2251C51.4061 44.4318 51.4478 44.6134 51.5311 44.7701C51.6178 44.9234 51.7311 45.0418 51.8711 45.1251C52.0144 45.2051 52.1694 45.2451 52.3361 45.2451C52.5061 45.2451 52.6611 45.2051 52.8011 45.1251C52.9444 45.0418 53.0578 44.9234 53.1411 44.7701C53.2244 44.6134 53.2661 44.4301 53.2661 44.2201ZM56.83 44.1251C56.83 44.2118 56.825 44.3034 56.815 44.4001H54.625C54.6417 44.6701 54.7334 44.8818 54.9 45.0351C55.07 45.1851 55.275 45.2601 55.515 45.2601C55.7117 45.2601 55.875 45.2151 56.005 45.1251C56.1384 45.0318 56.2317 44.9084 56.285 44.7551H56.775C56.7017 45.0184 56.555 45.2334 56.335 45.4001C56.115 45.5634 55.8417 45.6451 55.515 45.6451C55.255 45.6451 55.0217 45.5868 54.815 45.4701C54.6117 45.3534 54.4517 45.1884 54.335 44.9751C54.2184 44.7584 54.16 44.5084 54.16 44.2251C54.16 43.9418 54.2167 43.6934 54.33 43.4801C54.4434 43.2668 54.6017 43.1034 54.805 42.9901C55.0117 42.8734 55.2484 42.8151 55.515 42.8151C55.775 42.8151 56.005 42.8718 56.205 42.9851C56.405 43.0984 56.5584 43.2551 56.665 43.4551C56.775 43.6518 56.83 43.8751 56.83 44.1251ZM56.36 44.0301C56.36 43.8568 56.3217 43.7084 56.245 43.5851C56.1684 43.4584 56.0634 43.3634 55.93 43.3001C55.8 43.2334 55.655 43.2001 55.495 43.2001C55.265 43.2001 55.0684 43.2734 54.905 43.4201C54.745 43.5668 54.6534 43.7701 54.63 44.0301H56.36ZM58.4006 45.6451C58.1906 45.6451 58.0023 45.6101 57.8356 45.5401C57.6689 45.4668 57.5373 45.3668 57.4406 45.2401C57.3439 45.1101 57.2906 44.9618 57.2806 44.7951H57.7506C57.7639 44.9318 57.8273 45.0434 57.9406 45.1301C58.0573 45.2168 58.2089 45.2601 58.3956 45.2601C58.5689 45.2601 58.7056 45.2218 58.8056 45.1451C58.9056 45.0684 58.9556 44.9718 58.9556 44.8551C58.9556 44.7351 58.9023 44.6468 58.7956 44.5901C58.6889 44.5301 58.5239 44.4718 58.3006 44.4151C58.0973 44.3618 57.9306 44.3084 57.8006 44.2551C57.6739 44.1984 57.5639 44.1168 57.4706 44.0101C57.3806 43.9001 57.3356 43.7568 57.3356 43.5801C57.3356 43.4401 57.3773 43.3118 57.4606 43.1951C57.5439 43.0784 57.6623 42.9868 57.8156 42.9201C57.9689 42.8501 58.1439 42.8151 58.3406 42.8151C58.6439 42.8151 58.8889 42.8918 59.0756 43.0451C59.2623 43.1984 59.3623 43.4084 59.3756 43.6751H58.9206C58.9106 43.5318 58.8523 43.4168 58.7456 43.3301C58.6423 43.2434 58.5023 43.2001 58.3256 43.2001C58.1623 43.2001 58.0323 43.2351 57.9356 43.3051C57.8389 43.3751 57.7906 43.4668 57.7906 43.5801C57.7906 43.6701 57.8189 43.7451 57.8756 43.8051C57.9356 43.8618 58.0089 43.9084 58.0956 43.9451C58.1856 43.9784 58.3089 44.0168 58.4656 44.0601C58.6623 44.1134 58.8223 44.1668 58.9456 44.2201C59.0689 44.2701 59.1739 44.3468 59.2606 44.4501C59.3506 44.5534 59.3973 44.6884 59.4006 44.8551C59.4006 45.0051 59.3589 45.1401 59.2756 45.2601C59.1923 45.3801 59.0739 45.4751 58.9206 45.5451C58.7706 45.6118 58.5973 45.6451 58.4006 45.6451ZM59.8729 44.2201C59.8729 43.9401 59.9296 43.6951 60.0429 43.4851C60.1562 43.2718 60.3112 43.1068 60.5079 42.9901C60.7079 42.8734 60.9296 42.8151 61.1729 42.8151C61.4129 42.8151 61.6212 42.8668 61.7979 42.9701C61.9746 43.0734 62.1062 43.2034 62.1929 43.3601V42.8601H62.6529V45.6001H62.1929V45.0901C62.1029 45.2501 61.9679 45.3834 61.7879 45.4901C61.6112 45.5934 61.4046 45.6451 61.1679 45.6451C60.9246 45.6451 60.7046 45.5851 60.5079 45.4651C60.3112 45.3451 60.1562 45.1768 60.0429 44.9601C59.9296 44.7434 59.8729 44.4968 59.8729 44.2201ZM62.1929 44.2251C62.1929 44.0184 62.1512 43.8384 62.0679 43.6851C61.9846 43.5318 61.8712 43.4151 61.7279 43.3351C61.5879 43.2518 61.4329 43.2101 61.2629 43.2101C61.0929 43.2101 60.9379 43.2501 60.7979 43.3301C60.6579 43.4101 60.5462 43.5268 60.4629 43.6801C60.3796 43.8334 60.3379 44.0134 60.3379 44.2201C60.3379 44.4301 60.3796 44.6134 60.4629 44.7701C60.5462 44.9234 60.6579 45.0418 60.7979 45.1251C60.9379 45.2051 61.0929 45.2451 61.2629 45.2451C61.4329 45.2451 61.5879 45.2051 61.7279 45.1251C61.8712 45.0418 61.9846 44.9234 62.0679 44.7701C62.1512 44.6134 62.1929 44.4318 62.1929 44.2251ZM64.7568 42.8101C65.0902 42.8101 65.3602 42.9118 65.5668 43.1151C65.7735 43.3151 65.8768 43.6051 65.8768 43.9851V45.6001H65.4268V44.0501C65.4268 43.7768 65.3585 43.5684 65.2218 43.4251C65.0852 43.2784 64.8985 43.2051 64.6618 43.2051C64.4218 43.2051 64.2302 43.2801 64.0868 43.4301C63.9468 43.5801 63.8768 43.7984 63.8768 44.0851V45.6001H63.4218V42.8601H63.8768V43.2501C63.9668 43.1101 64.0885 43.0018 64.2418 42.9251C64.3985 42.8484 64.5702 42.8101 64.7568 42.8101Z"/>
</mask>
<path d="M51.4061 43.3651C51.4961 43.2084 51.6294 43.0784 51.8061 42.9751C51.9861 42.8684 52.1944 42.8151 52.4311 42.8151C52.6744 42.8151 52.8944 42.8734 53.0911 42.9901C53.2911 43.1068 53.4478 43.2718 53.5611 43.4851C53.6744 43.6951 53.7311 43.9401 53.7311 44.2201C53.7311 44.4968 53.6744 44.7434 53.5611 44.9601C53.4478 45.1768 53.2911 45.3451 53.0911 45.4651C52.8944 45.5851 52.6744 45.6451 52.4311 45.6451C52.1978 45.6451 51.9911 45.5934 51.8111 45.4901C51.6344 45.3834 51.4994 45.2518 51.4061 45.0951V46.9001H50.9511V42.8601H51.4061V43.3651ZM53.2661 44.2201C53.2661 44.0134 53.2244 43.8334 53.1411 43.6801C53.0578 43.5268 52.9444 43.4101 52.8011 43.3301C52.6611 43.2501 52.5061 43.2101 52.3361 43.2101C52.1694 43.2101 52.0144 43.2518 51.8711 43.3351C51.7311 43.4151 51.6178 43.5334 51.5311 43.6901C51.4478 43.8434 51.4061 44.0218 51.4061 44.2251C51.4061 44.4318 51.4478 44.6134 51.5311 44.7701C51.6178 44.9234 51.7311 45.0418 51.8711 45.1251C52.0144 45.2051 52.1694 45.2451 52.3361 45.2451C52.5061 45.2451 52.6611 45.2051 52.8011 45.1251C52.9444 45.0418 53.0578 44.9234 53.1411 44.7701C53.2244 44.6134 53.2661 44.4301 53.2661 44.2201ZM56.83 44.1251C56.83 44.2118 56.825 44.3034 56.815 44.4001H54.625C54.6417 44.6701 54.7334 44.8818 54.9 45.0351C55.07 45.1851 55.275 45.2601 55.515 45.2601C55.7117 45.2601 55.875 45.2151 56.005 45.1251C56.1384 45.0318 56.2317 44.9084 56.285 44.7551H56.775C56.7017 45.0184 56.555 45.2334 56.335 45.4001C56.115 45.5634 55.8417 45.6451 55.515 45.6451C55.255 45.6451 55.0217 45.5868 54.815 45.4701C54.6117 45.3534 54.4517 45.1884 54.335 44.9751C54.2184 44.7584 54.16 44.5084 54.16 44.2251C54.16 43.9418 54.2167 43.6934 54.33 43.4801C54.4434 43.2668 54.6017 43.1034 54.805 42.9901C55.0117 42.8734 55.2484 42.8151 55.515 42.8151C55.775 42.8151 56.005 42.8718 56.205 42.9851C56.405 43.0984 56.5584 43.2551 56.665 43.4551C56.775 43.6518 56.83 43.8751 56.83 44.1251ZM56.36 44.0301C56.36 43.8568 56.3217 43.7084 56.245 43.5851C56.1684 43.4584 56.0634 43.3634 55.93 43.3001C55.8 43.2334 55.655 43.2001 55.495 43.2001C55.265 43.2001 55.0684 43.2734 54.905 43.4201C54.745 43.5668 54.6534 43.7701 54.63 44.0301H56.36ZM58.4006 45.6451C58.1906 45.6451 58.0023 45.6101 57.8356 45.5401C57.6689 45.4668 57.5373 45.3668 57.4406 45.2401C57.3439 45.1101 57.2906 44.9618 57.2806 44.7951H57.7506C57.7639 44.9318 57.8273 45.0434 57.9406 45.1301C58.0573 45.2168 58.2089 45.2601 58.3956 45.2601C58.5689 45.2601 58.7056 45.2218 58.8056 45.1451C58.9056 45.0684 58.9556 44.9718 58.9556 44.8551C58.9556 44.7351 58.9023 44.6468 58.7956 44.5901C58.6889 44.5301 58.5239 44.4718 58.3006 44.4151C58.0973 44.3618 57.9306 44.3084 57.8006 44.2551C57.6739 44.1984 57.5639 44.1168 57.4706 44.0101C57.3806 43.9001 57.3356 43.7568 57.3356 43.5801C57.3356 43.4401 57.3773 43.3118 57.4606 43.1951C57.5439 43.0784 57.6623 42.9868 57.8156 42.9201C57.9689 42.8501 58.1439 42.8151 58.3406 42.8151C58.6439 42.8151 58.8889 42.8918 59.0756 43.0451C59.2623 43.1984 59.3623 43.4084 59.3756 43.6751H58.9206C58.9106 43.5318 58.8523 43.4168 58.7456 43.3301C58.6423 43.2434 58.5023 43.2001 58.3256 43.2001C58.1623 43.2001 58.0323 43.2351 57.9356 43.3051C57.8389 43.3751 57.7906 43.4668 57.7906 43.5801C57.7906 43.6701 57.8189 43.7451 57.8756 43.8051C57.9356 43.8618 58.0089 43.9084 58.0956 43.9451C58.1856 43.9784 58.3089 44.0168 58.4656 44.0601C58.6623 44.1134 58.8223 44.1668 58.9456 44.2201C59.0689 44.2701 59.1739 44.3468 59.2606 44.4501C59.3506 44.5534 59.3973 44.6884 59.4006 44.8551C59.4006 45.0051 59.3589 45.1401 59.2756 45.2601C59.1923 45.3801 59.0739 45.4751 58.9206 45.5451C58.7706 45.6118 58.5973 45.6451 58.4006 45.6451ZM59.8729 44.2201C59.8729 43.9401 59.9296 43.6951 60.0429 43.4851C60.1562 43.2718 60.3112 43.1068 60.5079 42.9901C60.7079 42.8734 60.9296 42.8151 61.1729 42.8151C61.4129 42.8151 61.6212 42.8668 61.7979 42.9701C61.9746 43.0734 62.1062 43.2034 62.1929 43.3601V42.8601H62.6529V45.6001H62.1929V45.0901C62.1029 45.2501 61.9679 45.3834 61.7879 45.4901C61.6112 45.5934 61.4046 45.6451 61.1679 45.6451C60.9246 45.6451 60.7046 45.5851 60.5079 45.4651C60.3112 45.3451 60.1562 45.1768 60.0429 44.9601C59.9296 44.7434 59.8729 44.4968 59.8729 44.2201ZM62.1929 44.2251C62.1929 44.0184 62.1512 43.8384 62.0679 43.6851C61.9846 43.5318 61.8712 43.4151 61.7279 43.3351C61.5879 43.2518 61.4329 43.2101 61.2629 43.2101C61.0929 43.2101 60.9379 43.2501 60.7979 43.3301C60.6579 43.4101 60.5462 43.5268 60.4629 43.6801C60.3796 43.8334 60.3379 44.0134 60.3379 44.2201C60.3379 44.4301 60.3796 44.6134 60.4629 44.7701C60.5462 44.9234 60.6579 45.0418 60.7979 45.1251C60.9379 45.2051 61.0929 45.2451 61.2629 45.2451C61.4329 45.2451 61.5879 45.2051 61.7279 45.1251C61.8712 45.0418 61.9846 44.9234 62.0679 44.7701C62.1512 44.6134 62.1929 44.4318 62.1929 44.2251ZM64.7568 42.8101C65.0902 42.8101 65.3602 42.9118 65.5668 43.1151C65.7735 43.3151 65.8768 43.6051 65.8768 43.9851V45.6001H65.4268V44.0501C65.4268 43.7768 65.3585 43.5684 65.2218 43.4251C65.0852 43.2784 64.8985 43.2051 64.6618 43.2051C64.4218 43.2051 64.2302 43.2801 64.0868 43.4301C63.9468 43.5801 63.8768 43.7984 63.8768 44.0851V45.6001H63.4218V42.8601H63.8768V43.2501C63.9668 43.1101 64.0885 43.0018 64.2418 42.9251C64.3985 42.8484 64.5702 42.8101 64.7568 42.8101Z" fill="#A2FF9C"/>
<path d="M51.4061 43.3651H50.9061V45.2392L51.8397 43.6142L51.4061 43.3651ZM51.8061 42.9751L52.0586 43.4067L52.061 43.4052L51.8061 42.9751ZM53.0911 42.9901L52.836 43.4201L52.8392 43.422L53.0911 42.9901ZM53.5611 43.4851L53.1195 43.7197L53.1211 43.7226L53.5611 43.4851ZM53.5611 44.9601L54.0042 45.1918L53.5611 44.9601ZM53.0911 45.4651L52.8339 45.0363L52.8307 45.0383L53.0911 45.4651ZM51.8111 45.4901L51.5526 45.9182L51.5622 45.9237L51.8111 45.4901ZM51.4061 45.0951L51.8357 44.8392L50.9061 43.2789V45.0951H51.4061ZM51.4061 46.9001V47.4001H51.9061V46.9001H51.4061ZM50.9511 46.9001H50.4511V47.4001H50.9511V46.9001ZM50.9511 42.8601V42.3601H50.4511V42.8601H50.9511ZM51.4061 42.8601H51.9061V42.3601H51.4061V42.8601ZM53.1411 43.6801L53.5804 43.4413V43.4413L53.1411 43.6801ZM52.8011 43.3301L52.553 43.7642L52.5574 43.7667L52.8011 43.3301ZM51.8711 43.3351L52.1192 43.7692L52.1224 43.7674L51.8711 43.3351ZM51.5311 43.6901L51.0936 43.4481L51.0918 43.4513L51.5311 43.6901ZM51.5311 44.7701L51.0895 45.005L51.0958 45.0161L51.5311 44.7701ZM51.8711 45.1251L51.6153 45.5549L51.6274 45.5617L51.8711 45.1251ZM52.8011 45.1251L53.0492 45.5592L53.0524 45.5574L52.8011 45.1251ZM53.1411 44.7701L53.5804 45.0089L53.5826 45.0049L53.1411 44.7701ZM51.8397 43.6142C51.8807 43.5427 51.947 43.472 52.0586 43.4067L51.5537 42.5435C51.3119 42.6849 51.1115 42.8742 50.9726 43.116L51.8397 43.6142ZM52.061 43.4052C52.1541 43.3501 52.2721 43.3151 52.4311 43.3151V42.3151C52.1168 42.3151 51.8181 42.3868 51.5512 42.545L52.061 43.4052ZM52.4311 43.3151C52.5907 43.3151 52.7215 43.3522 52.836 43.4201L53.3462 42.5601C53.0674 42.3946 52.7582 42.3151 52.4311 42.3151V43.3151ZM52.8392 43.422C52.9553 43.4897 53.0479 43.5847 53.1196 43.7197L54.0027 43.2505C53.8477 42.9588 53.6269 42.7238 53.3431 42.5582L52.8392 43.422ZM53.1211 43.7226C53.1887 43.8479 53.2311 44.0086 53.2311 44.2201H54.2311C54.2311 43.8716 54.1601 43.5423 54.0011 43.2476L53.1211 43.7226ZM53.2311 44.2201C53.2311 44.4268 53.1893 44.5921 53.1181 44.7283L54.0042 45.1918C54.1596 44.8947 54.2311 44.5668 54.2311 44.2201H53.2311ZM53.1181 44.7283C53.0452 44.8676 52.9511 44.966 52.8339 45.0364L53.3484 45.8938C53.6311 45.7242 53.8504 45.4859 54.0042 45.1918L53.1181 44.7283ZM52.8307 45.0383C52.7169 45.1077 52.588 45.1451 52.4311 45.1451V46.1451C52.7609 46.1451 53.072 46.0625 53.3515 45.8919L52.8307 45.0383ZM52.4311 45.1451C52.2741 45.1451 52.1552 45.1111 52.06 45.0565L51.5622 45.9237C51.827 46.0757 52.1215 46.1451 52.4311 46.1451V45.1451ZM52.0695 45.0621C51.9538 44.9922 51.8817 44.9165 51.8357 44.8392L50.9766 45.351C51.1172 45.5871 51.3151 45.7747 51.5527 45.9181L52.0695 45.0621ZM50.9061 45.0951V46.9001H51.9061V45.0951H50.9061ZM51.4061 46.4001H50.9511V47.4001H51.4061V46.4001ZM51.4511 46.9001V42.8601H50.4511V46.9001H51.4511ZM50.9511 43.3601H51.4061V42.3601H50.9511V43.3601ZM50.9061 42.8601V43.3651H51.9061V42.8601H50.9061ZM53.7661 44.2201C53.7661 43.9454 53.7103 43.6804 53.5804 43.4413L52.7018 43.9189C52.7386 43.9865 52.7661 44.0815 52.7661 44.2201H53.7661ZM53.5804 43.4413C53.4549 43.2104 53.276 43.0226 53.0448 42.8935L52.5574 43.7667C52.6129 43.7976 52.6607 43.8432 52.7018 43.9189L53.5804 43.4413ZM53.0492 42.896C52.8295 42.7704 52.5882 42.7101 52.3361 42.7101V43.7101C52.424 43.7101 52.4927 43.7298 52.553 43.7642L53.0492 42.896ZM52.3361 42.7101C52.0817 42.7101 51.8399 42.7749 51.6198 42.9028L52.1224 43.7674C52.189 43.7286 52.2572 43.7101 52.3361 43.7101V42.7101ZM51.623 42.901C51.3949 43.0313 51.2196 43.2203 51.0936 43.4481L51.9686 43.9321C52.016 43.8465 52.0673 43.7989 52.1192 43.7692L51.623 42.901ZM51.0918 43.4513C50.9625 43.6892 50.9061 43.9522 50.9061 44.2251H51.9061C51.9061 44.0913 51.933 43.9976 51.9704 43.9289L51.0918 43.4513ZM50.9061 44.2251C50.9061 44.5001 50.962 44.7649 51.0897 45.0049L51.9726 44.5353C51.9336 44.462 51.9061 44.3634 51.9061 44.2251H50.9061ZM51.0958 45.0161C51.2218 45.2389 51.3945 45.4233 51.6154 45.5547L52.1269 44.6955C52.0677 44.6602 52.0138 44.6079 51.9664 44.5241L51.0958 45.0161ZM51.6274 45.5617C51.8464 45.6839 52.0855 45.7451 52.3361 45.7451V44.7451C52.2534 44.7451 52.1825 44.7263 52.1148 44.6885L51.6274 45.5617ZM52.3361 45.7451C52.5882 45.7451 52.8295 45.6848 53.0492 45.5592L52.553 44.691C52.4927 44.7254 52.424 44.7451 52.3361 44.7451V45.7451ZM53.0524 45.5574C53.2792 45.4255 53.4557 45.2383 53.5804 45.0089L52.7018 44.5313C52.6598 44.6086 52.6097 44.658 52.5498 44.6928L53.0524 45.5574ZM53.5826 45.0049C53.7108 44.7638 53.7661 44.497 53.7661 44.2201H52.7661C52.7661 44.3632 52.7381 44.4631 52.6997 44.5353L53.5826 45.0049ZM56.815 44.4001V44.9001H57.266L57.3124 44.4515L56.815 44.4001ZM54.625 44.4001V43.9001H54.0932L54.126 44.4309L54.625 44.4001ZM54.9 45.0351L54.5614 45.4031L54.5692 45.41L54.9 45.0351ZM56.005 45.1251L56.2896 45.5362L56.2918 45.5347L56.005 45.1251ZM56.285 44.7551V44.2551H55.9296L55.8128 44.5908L56.285 44.7551ZM56.775 44.7551L57.2567 44.8892L57.4333 44.2551H56.775V44.7551ZM56.335 45.4001L56.6331 45.8016L56.6369 45.7986L56.335 45.4001ZM54.815 45.4701L54.5662 45.9038L54.5692 45.9055L54.815 45.4701ZM54.335 44.9751L53.8948 45.2122L53.8963 45.215L54.335 44.9751ZM54.33 43.4801L54.7716 43.7147L54.33 43.4801ZM54.805 42.9901L55.0485 43.4268L55.0508 43.4255L54.805 42.9901ZM56.205 42.9851L55.9585 43.4201V43.4201L56.205 42.9851ZM56.665 43.4551L56.2238 43.6904L56.2286 43.6992L56.665 43.4551ZM56.36 44.0301V44.5301H56.86V44.0301H56.36ZM56.245 43.5851L55.8172 43.844L55.8204 43.8491L56.245 43.5851ZM55.93 43.3001L55.7019 43.745L55.7086 43.7485L55.7155 43.7517L55.93 43.3001ZM54.905 43.4201L54.5709 43.0481L54.5672 43.0515L54.905 43.4201ZM54.63 44.0301L54.132 43.9854L54.0831 44.5301H54.63V44.0301ZM56.33 44.1251C56.33 44.1927 56.3261 44.2671 56.3177 44.3486L57.3124 44.4515C57.3239 44.3398 57.33 44.2309 57.33 44.1251H56.33ZM56.815 43.9001H54.625V44.9001H56.815V43.9001ZM54.126 44.4309C54.1489 44.8031 54.2818 45.1457 54.5615 45.4031L55.2385 44.6671C55.1849 44.6178 55.1344 44.5371 55.1241 44.3693L54.126 44.4309ZM54.5692 45.41C54.8362 45.6456 55.161 45.7601 55.515 45.7601V44.7601C55.3891 44.7601 55.3038 44.7246 55.2308 44.6602L54.5692 45.41ZM55.515 45.7601C55.7884 45.7601 56.0576 45.6968 56.2896 45.5362L55.7204 44.714C55.6925 44.7334 55.635 44.7601 55.515 44.7601V45.7601ZM56.2918 45.5347C56.5109 45.3813 56.6693 45.1722 56.7573 44.9194L55.8128 44.5908C55.7941 44.6447 55.7658 44.6822 55.7183 44.7155L56.2918 45.5347ZM56.285 45.2551H56.775V44.2551H56.285V45.2551ZM56.2934 44.621C56.2497 44.7778 56.1668 44.9003 56.0331 45.0016L56.6369 45.7986C56.9433 45.5666 57.1537 45.2591 57.2567 44.8892L56.2934 44.621ZM56.037 44.9986C55.9188 45.0864 55.7556 45.1451 55.515 45.1451V46.1451C55.9278 46.1451 56.3113 46.0405 56.6331 45.8016L56.037 44.9986ZM55.515 45.1451C55.3327 45.1451 55.1855 45.105 55.0608 45.0347L54.5692 45.9055C54.8579 46.0685 55.1773 46.1451 55.515 46.1451V45.1451ZM55.0639 45.0364C54.9435 44.9674 54.8479 44.8708 54.7737 44.7352L53.8963 45.215C54.0555 45.506 54.2799 45.7395 54.5662 45.9038L55.0639 45.0364ZM54.7753 44.738C54.7034 44.6046 54.66 44.4383 54.66 44.2251H53.66C53.66 44.5786 53.7333 44.9123 53.8948 45.2121L54.7753 44.738ZM54.66 44.2251C54.66 44.0094 54.7028 43.8442 54.7716 43.7147L53.8885 43.2455C53.7306 43.5426 53.66 43.8741 53.66 44.2251H54.66ZM54.7716 43.7147C54.8415 43.583 54.9325 43.4914 55.0485 43.4268L54.5616 42.5534C54.2708 42.7154 54.0452 42.9505 53.8885 43.2455L54.7716 43.7147ZM55.0508 43.4255C55.1736 43.3562 55.3236 43.3151 55.515 43.3151V42.3151C55.1731 42.3151 54.8498 42.3906 54.5592 42.5547L55.0508 43.4255ZM55.515 43.3151C55.7001 43.3151 55.8431 43.3547 55.9585 43.4201L56.4515 42.5501C56.1669 42.3888 55.8499 42.3151 55.515 42.3151V43.3151ZM55.9585 43.4201C56.0772 43.4874 56.1625 43.5753 56.2238 43.6904L57.1062 43.2198C56.9542 42.9349 56.7328 42.7095 56.4515 42.5501L55.9585 43.4201ZM56.2286 43.6992C56.2925 43.8133 56.33 43.951 56.33 44.1251H57.33C57.33 43.7992 57.2575 43.4902 57.1014 43.211L56.2286 43.6992ZM56.86 44.0301C56.86 43.7817 56.8044 43.5379 56.6697 43.3211L55.8204 43.8491C55.839 43.879 55.86 43.9318 55.86 44.0301H56.86ZM56.6728 43.3262C56.5456 43.1161 56.3666 42.9539 56.1445 42.8485L55.7155 43.7517C55.7601 43.7729 55.7911 43.8008 55.8173 43.844L56.6728 43.3262ZM56.1582 42.8552C55.951 42.749 55.7267 42.7001 55.495 42.7001V43.7001C55.5834 43.7001 55.649 43.7179 55.7019 43.745L56.1582 42.8552ZM55.495 42.7001C55.1481 42.7001 54.8307 42.8148 54.571 43.0481L55.2391 43.7921C55.306 43.7321 55.3819 43.7001 55.495 43.7001V42.7001ZM54.5672 43.0515C54.2974 43.2988 54.1641 43.6278 54.132 43.9854L55.128 44.0748C55.1426 43.9124 55.1927 43.8347 55.2429 43.7887L54.5672 43.0515ZM54.63 44.5301H56.36V43.5301H54.63V44.5301ZM57.8356 45.5401L57.6342 45.9978L57.642 46.0011L57.8356 45.5401ZM57.4406 45.2401L57.0393 45.5385L57.0431 45.5434L57.4406 45.2401ZM57.2806 44.7951V44.2951H56.7497L56.7815 44.825L57.2806 44.7951ZM57.7506 44.7951L58.2482 44.7465L58.2042 44.2951H57.7506V44.7951ZM57.9406 45.1301L57.6369 45.5273L57.6424 45.5315L57.9406 45.1301ZM58.7956 44.5901L58.5504 45.026L58.561 45.0317L58.7956 44.5901ZM58.3006 44.4151L58.1737 44.8988L58.1776 44.8997L58.3006 44.4151ZM57.8006 44.2551L57.5964 44.7115L57.6036 44.7147L57.6108 44.7177L57.8006 44.2551ZM57.4706 44.0101L57.0836 44.3267L57.0889 44.3331L57.0943 44.3393L57.4706 44.0101ZM57.4606 43.1951L57.0537 42.9045V42.9045L57.4606 43.1951ZM57.8156 42.9201L58.015 43.3787L58.0233 43.3749L57.8156 42.9201ZM59.0756 43.0451L58.7582 43.4315L59.0756 43.0451ZM59.3756 43.6751V44.1751H59.9012L59.875 43.6501L59.3756 43.6751ZM58.9206 43.6751L58.4218 43.7099L58.4543 44.1751H58.9206V43.6751ZM58.7456 43.3301L58.4243 43.7132L58.4303 43.7182L58.7456 43.3301ZM57.9356 43.3051L57.6424 42.9001L57.9356 43.3051ZM57.8756 43.8051L57.5121 44.1484L57.5219 44.1588L57.5323 44.1686L57.8756 43.8051ZM58.0956 43.9451L57.9008 44.4056L57.9113 44.41L57.9219 44.414L58.0956 43.9451ZM58.4656 44.0601L58.3323 44.542L58.3347 44.5427L58.4656 44.0601ZM58.9456 44.2201L58.7471 44.6791L58.7578 44.6835L58.9456 44.2201ZM59.2606 44.4501L58.8774 44.7715L58.8836 44.7785L59.2606 44.4501ZM59.4006 44.8551H59.9007L59.9005 44.8451L59.4006 44.8551ZM59.2756 45.2601L58.8649 44.9749L59.2756 45.2601ZM58.9206 45.5451L59.1237 46.002L59.1283 45.9999L58.9206 45.5451ZM58.4006 45.1451C58.2465 45.1451 58.1255 45.1195 58.0292 45.0791L57.642 46.0011C57.8791 46.1007 58.1347 46.1451 58.4006 46.1451V45.1451ZM58.037 45.0824C57.9365 45.0382 57.8765 44.9872 57.8381 44.9368L57.0431 45.5434C57.198 45.7464 57.4014 45.8953 57.6342 45.9978L58.037 45.0824ZM57.8418 44.9417C57.8051 44.8923 57.7841 44.8379 57.7797 44.7652L56.7815 44.825C56.7971 45.0856 56.8828 45.3279 57.0394 45.5384L57.8418 44.9417ZM57.2806 45.2951H57.7506V44.2951H57.2806V45.2951ZM57.253 44.8436C57.2804 45.1244 57.4182 45.36 57.6369 45.5273L58.2443 44.7329C58.2394 44.7291 58.2378 44.7273 58.2383 44.7278C58.2389 44.7285 58.2408 44.7308 58.243 44.7347C58.2452 44.7386 58.2468 44.7424 58.2477 44.7454C58.2486 44.7484 58.2485 44.749 58.2482 44.7465L57.253 44.8436ZM57.6424 45.5315C57.8671 45.6983 58.1322 45.7601 58.3956 45.7601V44.7601C58.2857 44.7601 58.2475 44.7352 58.2388 44.7287L57.6424 45.5315ZM58.3956 45.7601C58.6383 45.7601 58.895 45.7066 59.1098 45.5419L58.5014 44.7483C58.5162 44.7369 58.4996 44.7601 58.3956 44.7601V45.7601ZM59.1098 45.5419C59.3218 45.3794 59.4556 45.1411 59.4556 44.8551H58.4556C58.4556 44.8394 58.4597 44.8131 58.474 44.7854C58.4877 44.7589 58.5022 44.7477 58.5014 44.7483L59.1098 45.5419ZM59.4556 44.8551C59.4556 44.7191 59.4246 44.5745 59.3436 44.4404C59.2628 44.3065 59.1496 44.212 59.0302 44.1485L58.561 45.0317C58.5483 45.0249 58.5151 45.0029 58.4876 44.9573C58.4599 44.9115 58.4556 44.8711 58.4556 44.8551H59.4556ZM59.0407 44.1543C58.8755 44.0614 58.6591 43.9902 58.4236 43.9305L58.1776 44.8997C58.3888 44.9533 58.5024 44.9988 58.5505 45.0259L59.0407 44.1543ZM58.4275 43.9315C58.2362 43.8813 58.0925 43.8344 57.9904 43.7925L57.6108 44.7177C57.7687 44.7824 57.9584 44.8422 58.1737 44.8987L58.4275 43.9315ZM58.0048 43.7987C57.9454 43.7721 57.8938 43.7344 57.8469 43.6808L57.0943 44.3393C57.2341 44.4991 57.4024 44.6247 57.5964 44.7115L58.0048 43.7987ZM57.8576 43.6935C57.8571 43.6928 57.8356 43.6702 57.8356 43.5801H56.8356C56.8356 43.8433 56.9042 44.1074 57.0836 44.3267L57.8576 43.6935ZM57.8356 43.5801C57.8356 43.547 57.8432 43.5198 57.8675 43.4857L57.0537 42.9045C56.9114 43.1038 56.8356 43.3332 56.8356 43.5801H57.8356ZM57.8675 43.4857C57.8899 43.4543 57.9307 43.4153 58.015 43.3786L57.6162 42.4616C57.3938 42.5583 57.198 42.7026 57.0537 42.9045L57.8675 43.4857ZM58.0233 43.3749C58.1014 43.3393 58.2037 43.3151 58.3406 43.3151V42.3151C58.0841 42.3151 57.8365 42.3609 57.608 42.4653L58.0233 43.3749ZM58.3406 43.3151C58.5585 43.3151 58.6819 43.3688 58.7582 43.4315L59.393 42.6587C59.0959 42.4147 58.7294 42.3151 58.3406 42.3151V43.3151ZM58.7582 43.4315C58.8239 43.4854 58.8691 43.5576 58.8762 43.7001L59.875 43.6501C59.8554 43.2592 59.7007 42.9115 59.393 42.6587L58.7582 43.4315ZM59.3756 43.1751H58.9206V44.1751H59.3756V43.1751ZM59.4194 43.6403C59.4003 43.366 59.2804 43.1204 59.0609 42.942L58.4303 43.7182C58.4322 43.7197 58.4315 43.7194 58.4296 43.717C58.4276 43.7146 58.4254 43.7113 58.4234 43.7075C58.4216 43.7038 58.4208 43.7013 58.4207 43.7008C58.4206 43.7004 58.4213 43.7032 58.4218 43.7099L59.4194 43.6403ZM59.0669 42.947C58.8488 42.7641 58.5829 42.7001 58.3256 42.7001V43.7001C58.3738 43.7001 58.4018 43.7061 58.4153 43.7102C58.4273 43.714 58.4279 43.7162 58.4243 43.7132L59.0669 42.947ZM58.3256 42.7001C58.095 42.7001 57.8507 42.7493 57.6424 42.9001L58.2289 43.7101C58.2139 43.7209 58.2296 43.7001 58.3256 43.7001V42.7001ZM57.6424 42.9001C57.4239 43.0583 57.2906 43.2967 57.2906 43.5801H58.2906C58.2906 43.5969 58.2863 43.6269 58.2691 43.6596C58.2524 43.6913 58.2333 43.7069 58.2289 43.7101L57.6424 42.9001ZM57.2906 43.5801C57.2906 43.7851 57.3595 43.9868 57.5121 44.1484L58.2391 43.4618C58.2548 43.4784 58.2697 43.5009 58.2796 43.5271C58.2892 43.5526 58.2906 43.5721 58.2906 43.5801H57.2906ZM57.5323 44.1686C57.6412 44.2715 57.7668 44.3489 57.9008 44.4056L58.2904 43.4846C58.251 43.4679 58.23 43.452 58.2189 43.4416L57.5323 44.1686ZM57.9219 44.414C58.0312 44.4544 58.17 44.4971 58.3323 44.542L58.5989 43.5782C58.4479 43.5364 58.34 43.5024 58.2693 43.4762L57.9219 44.414ZM58.3347 44.5427C58.5188 44.5926 58.6539 44.6387 58.7472 44.679L59.1441 43.7612C58.9907 43.6948 58.8057 43.6343 58.5965 43.5775L58.3347 44.5427ZM58.7578 44.6835C58.8043 44.7023 58.8426 44.7298 58.8775 44.7714L59.6437 44.1288C59.5053 43.9637 59.3336 43.8378 59.1335 43.7567L58.7578 44.6835ZM58.8836 44.7785C58.8847 44.7797 58.8873 44.7827 58.8905 44.7922C58.8942 44.8029 58.8999 44.8255 58.9007 44.8651L59.9005 44.8451C59.8954 44.5875 59.8204 44.3315 59.6376 44.1217L58.8836 44.7785ZM58.9006 44.8551C58.9006 44.9061 58.8885 44.941 58.8649 44.9749L59.6863 45.5453C59.8294 45.3392 59.9006 45.1041 59.9006 44.8551H58.9006ZM58.8649 44.9749C58.8403 45.0104 58.7974 45.0517 58.713 45.0903L59.1283 45.9999C59.3505 45.8985 59.5443 45.7498 59.6863 45.5453L58.8649 44.9749ZM58.7175 45.0882C58.6428 45.1214 58.5409 45.1451 58.4006 45.1451V46.1451C58.6536 46.1451 58.8984 46.1021 59.1237 46.002L58.7175 45.0882ZM60.0429 43.4851L60.4829 43.7226L60.4845 43.7197L60.0429 43.4851ZM60.5079 42.9901L60.256 42.5582L60.2528 42.5601L60.5079 42.9901ZM61.7979 42.9701L61.5455 43.4017V43.4017L61.7979 42.9701ZM62.1929 43.3601L61.7554 43.6021L62.6929 43.3601H62.1929ZM62.1929 42.8601V42.3601H61.6929V42.8601H62.1929ZM62.6529 42.8601H63.1529V42.3601H62.6529V42.8601ZM62.6529 45.6001V46.1001H63.1529V45.6001H62.6529ZM62.1929 45.6001H61.6929V46.1001H62.1929V45.6001ZM62.1929 45.0901H62.6929V43.1813L61.7571 44.845L62.1929 45.0901ZM61.7879 45.4901L62.0404 45.9217L62.0428 45.9202L61.7879 45.4901ZM60.5079 45.4651L60.2475 45.8919L60.5079 45.4651ZM60.0429 44.9601L60.486 44.7283L60.0429 44.9601ZM61.7279 43.3351L61.4721 43.7649L61.4842 43.7717L61.7279 43.3351ZM60.7979 43.3301L60.5498 42.896L60.5498 42.896L60.7979 43.3301ZM60.4629 43.6801L60.9022 43.9189L60.4629 43.6801ZM60.4629 44.7701L60.0215 45.0049L60.0236 45.0089L60.4629 44.7701ZM60.7979 45.1251L60.5421 45.5548L60.5498 45.5592L60.7979 45.1251ZM61.7279 45.1251L61.976 45.5592L61.9792 45.5574L61.7279 45.1251ZM62.0679 44.7701L62.5072 45.0089L62.5093 45.0049L62.0679 44.7701ZM60.3729 44.2201C60.3729 44.0086 60.4153 43.8479 60.4829 43.7226L59.6029 43.2476C59.4439 43.5423 59.3729 43.8716 59.3729 44.2201H60.3729ZM60.4845 43.7197C60.5573 43.5826 60.6498 43.4873 60.763 43.4201L60.2528 42.5601C59.9727 42.7262 59.7552 42.9609 59.6014 43.2505L60.4845 43.7197ZM60.7598 43.422C60.8794 43.3522 61.0134 43.3151 61.1729 43.3151V42.3151C60.8457 42.3151 60.5364 42.3946 60.256 42.5582L60.7598 43.422ZM61.1729 43.3151C61.3396 43.3151 61.4577 43.3504 61.5455 43.4017L62.0504 42.5385C61.7848 42.3832 61.4862 42.3151 61.1729 42.3151V43.3151ZM61.5455 43.4017C61.6558 43.4662 61.7182 43.5349 61.7554 43.6021L62.6304 43.1181C62.4943 42.872 62.2933 42.6806 62.0504 42.5385L61.5455 43.4017ZM62.6929 43.3601V42.8601H61.6929V43.3601H62.6929ZM62.1929 43.3601H62.6529V42.3601H62.1929V43.3601ZM62.1529 42.8601V45.6001H63.1529V42.8601H62.1529ZM62.6529 45.1001H62.1929V46.1001H62.6529V45.1001ZM62.6929 45.6001V45.0901H61.6929V45.6001H62.6929ZM61.7571 44.845C61.7159 44.9183 61.6483 44.9917 61.533 45.06L62.0428 45.9202C62.2876 45.7752 62.49 45.5819 62.6287 45.3352L61.7571 44.845ZM61.5355 45.0585C61.4467 45.1104 61.3299 45.1451 61.1679 45.1451V46.1451C61.4792 46.1451 61.7758 46.0764 62.0404 45.9217L61.5355 45.0585ZM61.1679 45.1451C61.0111 45.1451 60.8821 45.1077 60.7683 45.0383L60.2475 45.8919C60.5271 46.0625 60.8381 46.1451 61.1679 46.1451V45.1451ZM60.7683 45.0383C60.6539 44.9685 60.5599 44.8698 60.486 44.7283L59.5999 45.1918C59.7526 45.4838 59.9686 45.7217 60.2475 45.8919L60.7683 45.0383ZM60.486 44.7283C60.4147 44.5921 60.3729 44.4268 60.3729 44.2201H59.3729C59.3729 44.5668 59.4444 44.8947 59.5999 45.1918L60.486 44.7283ZM62.6929 44.2251C62.6929 43.9504 62.6371 43.6854 62.5072 43.4463L61.6286 43.9239C61.6654 43.9915 61.6929 44.0865 61.6929 44.2251H62.6929ZM62.5072 43.4463C62.3817 43.2154 62.2028 43.0276 61.9716 42.8985L61.4842 43.7717C61.5397 43.8026 61.5875 43.8482 61.6286 43.9239L62.5072 43.4463ZM61.9837 42.9055C61.7629 42.774 61.5189 42.7101 61.2629 42.7101V43.7101C61.347 43.7101 61.413 43.7295 61.4722 43.7647L61.9837 42.9055ZM61.2629 42.7101C61.0108 42.7101 60.7695 42.7704 60.5498 42.896L61.046 43.7642C61.1063 43.7298 61.175 43.7101 61.2629 43.7101V42.7101ZM60.5498 42.896C60.3226 43.0259 60.1475 43.2134 60.0236 43.4413L60.9022 43.9189C60.945 43.8402 60.9933 43.7943 61.046 43.7642L60.5498 42.896ZM60.0236 43.4413C59.8937 43.6804 59.8379 43.9454 59.8379 44.2201H60.8379C60.8379 44.0815 60.8655 43.9865 60.9022 43.9189L60.0236 43.4413ZM59.8379 44.2201C59.8379 44.497 59.8932 44.7638 60.0215 45.0049L60.9043 44.5353C60.8659 44.4631 60.8379 44.3632 60.8379 44.2201H59.8379ZM60.0236 45.0089C60.1467 45.2353 60.3194 45.4222 60.5422 45.5547L61.0537 44.6955C60.9964 44.6614 60.9458 44.6115 60.9022 44.5313L60.0236 45.0089ZM60.5498 45.5592C60.7695 45.6848 61.0108 45.7451 61.2629 45.7451V44.7451C61.175 44.7451 61.1063 44.7254 61.046 44.691L60.5498 45.5592ZM61.2629 45.7451C61.515 45.7451 61.7563 45.6848 61.976 45.5592L61.4798 44.691C61.4195 44.7254 61.3508 44.7451 61.2629 44.7451V45.7451ZM61.9792 45.5574C62.206 45.4255 62.3825 45.2383 62.5072 45.0089L61.6286 44.5313C61.5866 44.6086 61.5365 44.658 61.4766 44.6928L61.9792 45.5574ZM62.5093 45.0049C62.637 44.7649 62.6929 44.5001 62.6929 44.2251H61.6929C61.6929 44.3634 61.6655 44.462 61.6265 44.5353L62.5093 45.0049ZM65.5668 43.1151L65.2161 43.4715L65.2191 43.4744L65.5668 43.1151ZM65.8768 45.6001V46.1001H66.3768V45.6001H65.8768ZM65.4268 45.6001H64.9268V46.1001H65.4268V45.6001ZM65.2218 43.4251L64.856 43.766L64.8599 43.7701L65.2218 43.4251ZM64.0868 43.4301L63.7253 43.0846L63.7213 43.0889L64.0868 43.4301ZM63.8768 45.6001V46.1001H64.3768V45.6001H63.8768ZM63.4218 45.6001H62.9218V46.1001H63.4218V45.6001ZM63.4218 42.8601V42.3601H62.9218V42.8601H63.4218ZM63.8768 42.8601H64.3768V42.3601H63.8768V42.8601ZM63.8768 43.2501H63.3768V44.9525L64.2974 43.5205L63.8768 43.2501ZM64.2418 42.9251L64.022 42.476L64.0182 42.4779L64.2418 42.9251ZM64.7568 43.3101C64.9802 43.3101 65.1171 43.3741 65.2162 43.4715L65.9175 42.7587C65.6032 42.4494 65.2001 42.3101 64.7568 42.3101V43.3101ZM65.2191 43.4744C65.3001 43.5528 65.3768 43.6952 65.3768 43.9851H66.3768C66.3768 43.515 66.2469 43.0774 65.9145 42.7558L65.2191 43.4744ZM65.3768 43.9851V45.6001H66.3768V43.9851H65.3768ZM65.8768 45.1001H65.4268V46.1001H65.8768V45.1001ZM65.9268 45.6001V44.0501H64.9268V45.6001H65.9268ZM65.9268 44.0501C65.9268 43.6978 65.8381 43.3469 65.5837 43.0801L64.8599 43.7701C64.8789 43.79 64.9268 43.8558 64.9268 44.0501H65.9268ZM65.5876 43.0842C65.3393 42.8177 65.01 42.7051 64.6618 42.7051V43.7051C64.787 43.7051 64.831 43.7391 64.856 43.766L65.5876 43.0842ZM64.6618 42.7051C64.3086 42.7051 63.978 42.8203 63.7253 43.0847L64.4483 43.7755C64.4823 43.7399 64.535 43.7051 64.6618 43.7051V42.7051ZM63.7213 43.0889C63.4657 43.3628 63.3768 43.7223 63.3768 44.0851H64.3768C64.3768 43.8745 64.428 43.7974 64.4523 43.7713L63.7213 43.0889ZM63.3768 44.0851V45.6001H64.3768V44.0851H63.3768ZM63.8768 45.1001H63.4218V46.1001H63.8768V45.1001ZM63.9218 45.6001V42.8601H62.9218V45.6001H63.9218ZM63.4218 43.3601H63.8768V42.3601H63.4218V43.3601ZM63.3768 42.8601V43.2501H64.3768V42.8601H63.3768ZM64.2974 43.5205C64.3373 43.4584 64.3899 43.4101 64.4654 43.3723L64.0182 42.4779C63.7871 42.5935 63.5963 42.7618 63.4562 42.9797L64.2974 43.5205ZM64.4616 43.3742C64.5451 43.3333 64.6409 43.3101 64.7568 43.3101V42.3101C64.4994 42.3101 64.2519 42.3635 64.022 42.476L64.4616 43.3742Z" fill="#0BA200" mask="url(#path-8-outside-1_257_3)"/>
<path d="M37.8135 34.3057L38.6333 34.7107" stroke="#0BA200" stroke-linecap="round" stroke-linejoin="round"/>
<path d="M40.6748 32.926L40.3881 33.7943" stroke="#0BA200" stroke-linecap="round" stroke-linejoin="round"/>
<path d="M39.4011 33.9894L38.9238 33.1699" stroke="#0BA200" stroke-linecap="round" stroke-linejoin="round"/>
<path d="M38.3612 35.803L37.4287 35.9757" stroke="#0BA200" stroke-linecap="round" stroke-linejoin="round"/>
<path fill-rule="evenodd" clip-rule="evenodd" d="M73.5251 48.3194L74.3545 50.2771C74.3545 50.2772 74.3546 50.2772 74.3546 50.2772C74.3547 50.2772 74.3547 50.2771 74.3547 50.277L73.7464 48.8412C73.5327 48.3366 73.7684 47.7543 74.273 47.5406C74.7776 47.3268 75.3599 47.5626 75.5736 48.0671L76.5689 50.4164C76.5865 50.4581 76.6011 50.5003 76.6127 50.5428L77.314 52.198C78.4553 54.8923 77.1965 58.0016 74.5022 59.143C74.4285 59.1742 74.3541 59.2022 74.2794 59.227C74.2721 59.2294 74.2649 59.2324 74.2581 59.236C74.1839 59.2744 74.1077 59.3102 74.0295 59.3433C72.937 59.8061 71.7337 59.6276 70.839 58.9776C70.7957 58.9496 70.7537 58.9185 70.7133 58.8842L66.4449 55.2598C65.9411 54.8321 65.8795 54.077 66.3072 53.5732C66.735 53.0695 67.4901 53.0078 67.9938 53.4356L69.0668 54.3466C69.1802 54.4429 69.3461 54.321 69.2881 54.184L66.3245 47.1884C66.0853 46.6237 66.3491 45.9719 66.9139 45.7327C67.4786 45.4934 68.1303 45.7573 68.3696 46.322L69.8592 49.8384C69.6662 49.3407 69.9025 48.7762 70.3975 48.5665C70.8968 48.355 71.4722 48.5837 71.6913 49.0775C71.4892 48.5766 71.7252 48.0043 72.2245 47.7928C72.7291 47.5791 73.3114 47.8148 73.5251 48.3194Z" fill="white"/>
<path d="M73.7464 48.8412L74.2068 48.6461L73.7464 48.8412ZM75.5736 48.0671L75.1132 48.2622L75.5736 48.0671ZM76.5689 50.4164L77.0292 50.2213L76.5689 50.4164ZM76.6127 50.5428L76.1305 50.6747L76.1393 50.707L76.1523 50.7378L76.6127 50.5428ZM77.314 52.198L76.8536 52.3931L77.314 52.198ZM74.5022 59.143L74.3072 58.6826L74.3072 58.6826L74.5022 59.143ZM70.839 58.9776L71.1329 58.5731L71.1219 58.5652L71.1106 58.5578L70.839 58.9776ZM70.7133 58.8842L71.0369 58.503L71.0369 58.503L70.7133 58.8842ZM66.4449 55.2598L66.1212 55.641L66.1212 55.641L66.4449 55.2598ZM66.3072 53.5732L65.9261 53.2496L65.9261 53.2496L66.3072 53.5732ZM67.9938 53.4356L68.3175 53.0544L68.3175 53.0544L67.9938 53.4356ZM66.3245 47.1884L66.7849 46.9933L66.3245 47.1884ZM68.3696 46.322L68.83 46.127L68.3696 46.322ZM69.8592 49.8384L69.3988 50.0335L70.3254 49.6576L69.8592 49.8384ZM71.6913 49.0775L71.2343 49.2802L72.155 48.8903L71.6913 49.0775ZM69.0668 54.3466L68.7432 54.7278L69.0668 54.3466ZM69.2881 54.184L68.8277 54.3791L69.2881 54.184ZM74.3547 50.277L73.8943 50.4721L74.3547 50.277ZM74.2794 59.227L74.122 58.7524L74.2794 59.227ZM74.2581 59.236L74.4877 59.6802L74.2581 59.236ZM74.8149 50.0821L73.9855 48.1244L73.0647 48.5144L73.8941 50.4722L74.8149 50.0821ZM73.2861 49.0362L73.8943 50.4721L74.8151 50.082L74.2068 48.6461L73.2861 49.0362ZM74.078 47.0802C73.3191 47.4016 72.9646 48.2774 73.2861 49.0362L74.2068 48.6461C74.1008 48.3958 74.2178 48.107 74.468 48.0009L74.078 47.0802ZM76.034 47.8721C75.7126 47.1133 74.8368 46.7587 74.078 47.0802L74.468 48.0009C74.7183 47.8949 75.0072 48.0119 75.1132 48.2622L76.034 47.8721ZM77.0292 50.2213L76.034 47.8721L75.1132 48.2622L76.1085 50.6114L77.0292 50.2213ZM77.095 50.4109C77.0775 50.3469 77.0556 50.2836 77.0292 50.2213L76.1085 50.6114C76.1174 50.6325 76.1247 50.6537 76.1305 50.6747L77.095 50.4109ZM77.7743 52.003L77.0731 50.3478L76.1523 50.7378L76.8536 52.3931L77.7743 52.003ZM74.6973 59.6034C77.6458 58.3543 79.0234 54.9515 77.7743 52.003L76.8536 52.3931C77.8872 54.833 76.7472 57.6489 74.3072 58.6826L74.6973 59.6034ZM74.4368 59.7016C74.5243 59.6726 74.6112 59.6399 74.6973 59.6034L74.3072 58.6826C74.2458 58.7086 74.184 58.7319 74.122 58.7524L74.4368 59.7016ZM74.0285 58.7918C73.9656 58.8243 73.9009 58.8547 73.8344 58.8829L74.2245 59.8037C74.3144 59.7656 74.4022 59.7244 74.4877 59.6802L74.0285 58.7918ZM73.8344 58.8829C72.9101 59.2745 71.8916 59.1243 71.1329 58.5731L70.5451 59.3822C71.5758 60.1309 72.964 60.3377 74.2245 59.8037L73.8344 58.8829ZM70.3897 59.2653C70.4466 59.3136 70.506 59.3577 70.5674 59.3974L71.1106 58.5578C71.0854 58.5415 71.0608 58.5233 71.0369 58.503L70.3897 59.2653ZM66.1212 55.641L70.3897 59.2653L71.0369 58.503L66.7685 54.8787L66.1212 55.641ZM65.9261 53.2496C65.3196 53.9638 65.407 55.0345 66.1212 55.641L66.7685 54.8787C66.4752 54.6297 66.4394 54.1901 66.6884 53.8968L65.9261 53.2496ZM68.3175 53.0544C67.6032 52.448 66.5326 52.5353 65.9261 53.2496L66.6884 53.8968C66.9374 53.6036 67.377 53.5677 67.6702 53.8167L68.3175 53.0544ZM69.3904 53.9655L68.3175 53.0544L67.6702 53.8167L68.7432 54.7278L69.3904 53.9655ZM65.8641 47.3834L68.8277 54.3791L69.7485 53.989L66.7849 46.9933L65.8641 47.3834ZM66.7188 45.2723C65.8998 45.6192 65.5172 46.5644 65.8641 47.3834L66.7849 46.9933C66.6534 46.6829 66.7984 46.3246 67.1089 46.1931L66.7188 45.2723ZM68.83 46.127C68.483 45.308 67.5378 44.9253 66.7188 45.2723L67.1089 46.1931C67.4194 46.0615 67.7777 46.2066 67.9092 46.5171L68.83 46.127ZM70.3196 49.6434L68.83 46.127L67.9092 46.5171L69.3988 50.0335L70.3196 49.6434ZM70.2024 48.1061C69.4579 48.4216 69.1026 49.2704 69.3931 50.0192L70.3254 49.6576C70.2297 49.411 70.347 49.1309 70.5925 49.0269L70.2024 48.1061ZM72.1484 48.8747C71.8188 48.1319 70.9534 47.788 70.2024 48.1061L70.5925 49.0269C70.8402 48.922 71.1257 49.0354 71.2343 49.2802L72.1484 48.8747ZM72.0295 47.3324C71.2786 47.6505 70.9236 48.5112 71.2277 49.2646L72.155 48.8903C72.0548 48.6421 72.1719 48.3581 72.4195 48.2532L72.0295 47.3324ZM73.9855 48.1244C73.664 47.3655 72.7883 47.011 72.0295 47.3324L72.4195 48.2532C72.6698 48.1472 72.9587 48.2641 73.0647 48.5144L73.9855 48.1244ZM68.7432 54.7278C69.2582 55.1651 70.012 54.6111 69.7485 53.989L68.8277 54.3791C68.6802 54.0308 69.1021 53.7207 69.3904 53.9655L68.7432 54.7278ZM74.5497 50.7376C74.8039 50.6299 74.9229 50.3365 74.8151 50.082L73.8943 50.4721C73.7866 50.2177 73.9055 49.9244 74.1596 49.8168L74.5497 50.7376ZM74.122 58.7524C74.0899 58.7631 74.0586 58.7762 74.0285 58.7918L74.4877 59.6802C74.4712 59.6887 74.4542 59.6958 74.4368 59.7016L74.122 58.7524ZM73.8941 50.4722C74.0018 50.7265 74.2953 50.8453 74.5497 50.7376L74.1596 49.8168C74.4138 49.7091 74.7072 49.8279 74.8149 50.0821L73.8941 50.4722Z" fill="#0BA200"/>
<path d="M69.7051 49.4758L70.7003 51.8251" stroke="#0BA200" stroke-linecap="round" stroke-linejoin="round"/>
<path d="M71.5322 48.7021L72.5274 51.0514" stroke="#0BA200" stroke-linecap="round" stroke-linejoin="round"/>
<path d="M73.4697 48.189L74.3544 50.2772" stroke="#0BA200" stroke-linecap="round" stroke-linejoin="round"/>
<rect width="24.3842" height="24.8276" rx="6.6207" transform="matrix(-1 0 0 1 42.582 58.9653)" fill="white" stroke="#0BA200"/>
<rect width="20.3941" height="3.5468" rx="1.7734" transform="matrix(-1 0 0 1 28.3945 64.2859)" fill="#A2FF9C" stroke="#0BA200"/>
<rect width="20.8374" height="3.5468" rx="1.7734" transform="matrix(-1 0 0 1 30.6113 69.606)" fill="#A2FF9C" stroke="#0BA200"/>
<rect width="20.3941" height="3.5468" rx="1.7734" transform="matrix(-1 0 0 1 28.3945 74.9265)" fill="#A2FF9C" stroke="#0BA200"/>
</g>
<defs>
<clipPath id="clip0_257_3">
<rect width="118" height="110" fill="white"/>
</clipPath>
</defs>
</svg>
