<svg width="100" height="103" viewBox="0 0 100 103" fill="none" xmlns="http://www.w3.org/2000/svg">
<path d="M7.996 99L8.044 95.112L7.996 90.564H9.892L9.856 94.32L9.892 99H7.996ZM11.8386 99V91.944H13.0266L13.2426 92.652H13.3146C13.4746 92.556 13.6466 92.46 13.8306 92.364C14.0226 92.26 14.2266 92.164 14.4426 92.076C14.6586 91.988 14.8866 91.92 15.1266 91.872C15.3666 91.816 15.6186 91.788 15.8826 91.788C16.3786 91.788 16.7546 91.9 17.0106 92.124C17.2666 92.348 17.4426 92.656 17.5386 93.048C17.6346 93.44 17.6826 93.884 17.6826 94.38V99H15.8226V94.728C15.8226 94.4 15.8146 94.152 15.7986 93.984C15.7826 93.816 15.7346 93.684 15.6546 93.588C15.6066 93.524 15.5426 93.48 15.4626 93.456C15.3826 93.424 15.2866 93.408 15.1746 93.408C15.0226 93.408 14.8546 93.432 14.6706 93.48C14.4946 93.528 14.3186 93.592 14.1426 93.672C13.9746 93.744 13.8266 93.824 13.6986 93.912V99H11.8386ZM24.6273 99.156C24.2033 99.156 23.8393 99.092 23.5353 98.964C23.2393 98.836 23.0113 98.592 22.8513 98.232C22.6993 97.864 22.6233 97.332 22.6233 96.636V93.684H21.8073V92.52L22.7073 92.352L22.9833 90.684H24.5073V92.292H25.9473V93.72H24.4833V96.684C24.4833 96.956 24.4993 97.156 24.5312 97.284C24.5713 97.412 24.6273 97.492 24.6992 97.524C24.7793 97.556 24.8793 97.572 24.9993 97.572C25.1193 97.572 25.2513 97.568 25.3953 97.56C25.5393 97.544 25.6633 97.532 25.7673 97.524C25.8713 97.516 25.9233 97.512 25.9233 97.512V99.024C25.9233 99.024 25.7953 99.044 25.5393 99.084C25.2833 99.132 24.9793 99.156 24.6273 99.156ZM27.2239 99V89.868H29.0839V93.228L28.8079 92.532C28.9199 92.476 29.1039 92.388 29.3599 92.268C29.6159 92.14 29.9079 92.024 30.2359 91.92C30.5719 91.816 30.9119 91.764 31.2559 91.764C31.7439 91.764 32.1159 91.88 32.3719 92.112C32.6359 92.344 32.8159 92.656 32.9119 93.048C33.0159 93.44 33.0679 93.884 33.0679 94.38V99H31.2079V94.704C31.2079 94.392 31.1919 94.144 31.1599 93.96C31.1279 93.776 31.0799 93.644 31.0159 93.564C30.9759 93.508 30.9119 93.464 30.8239 93.432C30.7359 93.4 30.6439 93.384 30.5479 93.384C30.4279 93.384 30.2759 93.412 30.0919 93.468C29.9079 93.516 29.7199 93.576 29.5279 93.648C29.3439 93.712 29.1839 93.776 29.0479 93.84C28.9119 93.896 28.8319 93.932 28.8079 93.948L29.0839 93.564V99H27.2239ZM37.7234 99.168C37.0754 99.168 36.5034 99.048 36.0074 98.808C35.5194 98.568 35.1394 98.176 34.8674 97.632C34.5954 97.088 34.4594 96.364 34.4594 95.46C34.4594 94.516 34.6034 93.78 34.8914 93.252C35.1794 92.716 35.5674 92.336 36.0554 92.112C36.5434 91.888 37.0914 91.776 37.6994 91.776C38.3234 91.776 38.8514 91.884 39.2834 92.1C39.7154 92.316 40.0434 92.668 40.2674 93.156C40.4994 93.644 40.6154 94.3 40.6154 95.124V96.12H35.5034L36.3434 95.856C36.3434 96.144 36.3554 96.396 36.3794 96.612C36.4034 96.82 36.4434 96.996 36.4994 97.14C36.5554 97.276 36.6274 97.384 36.7154 97.464C36.7954 97.536 36.8954 97.592 37.0154 97.632C37.1434 97.672 37.3074 97.692 37.5074 97.692C37.7234 97.692 37.9634 97.672 38.2274 97.632C38.4914 97.584 38.7474 97.528 38.9954 97.464C39.2514 97.4 39.4714 97.344 39.6554 97.296C39.8394 97.24 39.9634 97.2 40.0274 97.176L40.4834 98.52C40.4114 98.552 40.2354 98.624 39.9554 98.736C39.6834 98.84 39.3514 98.936 38.9594 99.024C38.5754 99.12 38.1634 99.168 37.7234 99.168ZM36.3434 95.04L35.5154 94.788L39.5594 94.716L38.7194 94.98C38.7194 94.596 38.7034 94.28 38.6714 94.032C38.6394 93.784 38.5834 93.608 38.5034 93.504C38.4474 93.44 38.3634 93.38 38.2514 93.324C38.1394 93.268 37.9554 93.24 37.6994 93.24C37.3954 93.24 37.1674 93.272 37.0154 93.336C36.8634 93.392 36.7474 93.464 36.6674 93.552C36.4514 93.776 36.3434 94.272 36.3434 95.04ZM45.2499 99L45.2979 95.064L45.2499 90.576C45.2499 90.576 45.3539 90.568 45.5619 90.552C45.7779 90.536 46.0499 90.516 46.3779 90.492C46.7139 90.468 47.0699 90.448 47.4459 90.432C47.8299 90.416 48.1899 90.408 48.5259 90.408C49.3979 90.408 50.0699 90.656 50.5419 91.152C51.0219 91.648 51.2619 92.388 51.2619 93.372C51.2619 93.988 51.1779 94.496 51.0099 94.896C50.8419 95.296 50.6139 95.612 50.3259 95.844C50.0379 96.068 49.7139 96.228 49.3539 96.324C49.0019 96.412 48.6379 96.456 48.2619 96.456C47.9579 96.456 47.6939 96.452 47.4699 96.444C47.2459 96.428 47.1339 96.42 47.1339 96.42V99H45.2499ZM48.2979 94.956C48.4899 94.956 48.6499 94.94 48.7779 94.908C48.9059 94.868 48.9979 94.824 49.0539 94.776C49.1419 94.688 49.2059 94.528 49.2459 94.296C49.2859 94.064 49.3059 93.724 49.3059 93.276C49.3059 92.948 49.2899 92.704 49.2579 92.544C49.2339 92.384 49.2019 92.276 49.1619 92.22C49.1219 92.156 49.0819 92.108 49.0419 92.076C48.9939 92.028 48.9019 91.988 48.7659 91.956C48.6299 91.924 48.4419 91.908 48.2019 91.908C48.0179 91.908 47.8299 91.916 47.6379 91.932C47.4539 91.94 47.2859 91.952 47.1339 91.968V94.872C47.1339 94.872 47.2459 94.888 47.4699 94.92C47.6939 94.944 47.9699 94.956 48.2979 94.956ZM52.655 99V91.944H53.807L54.047 92.688H54.119C54.119 92.688 54.175 92.644 54.287 92.556C54.407 92.46 54.563 92.356 54.755 92.244C54.947 92.124 55.155 92.02 55.379 91.932C55.603 91.836 55.823 91.788 56.039 91.788C56.319 91.788 56.519 91.812 56.639 91.86C56.759 91.9 56.819 91.92 56.819 91.92L56.675 93.528C56.675 93.528 56.603 93.524 56.459 93.516C56.323 93.5 56.175 93.492 56.015 93.492C55.815 93.492 55.619 93.516 55.427 93.564C55.243 93.604 55.075 93.656 54.923 93.72C54.771 93.784 54.635 93.852 54.515 93.924V99H52.655ZM60.5473 99.156C59.7713 99.156 59.1553 99.008 58.6993 98.712C58.2433 98.408 57.9193 97.98 57.7273 97.428C57.5353 96.876 57.4393 96.22 57.4393 95.46C57.4393 94.708 57.5353 94.06 57.7273 93.516C57.9193 92.964 58.2433 92.54 58.6993 92.244C59.1553 91.94 59.7713 91.788 60.5473 91.788C61.3313 91.788 61.9473 91.94 62.3953 92.244C62.8433 92.54 63.1593 92.964 63.3433 93.516C63.5353 94.06 63.6313 94.712 63.6313 95.472C63.6313 96.224 63.5353 96.876 63.3433 97.428C63.1593 97.98 62.8433 98.408 62.3953 98.712C61.9473 99.008 61.3313 99.156 60.5473 99.156ZM60.5473 97.74C60.7793 97.74 60.9713 97.708 61.1233 97.644C61.2753 97.58 61.3953 97.464 61.4833 97.296C61.5793 97.128 61.6433 96.896 61.6753 96.6C61.7153 96.304 61.7353 95.928 61.7353 95.472C61.7353 95.008 61.7153 94.628 61.6753 94.332C61.6353 94.036 61.5713 93.808 61.4833 93.648C61.3953 93.48 61.2753 93.364 61.1233 93.3C60.9713 93.236 60.7793 93.204 60.5473 93.204C60.3153 93.204 60.1193 93.236 59.9593 93.3C59.8073 93.364 59.6833 93.48 59.5873 93.648C59.4993 93.808 59.4353 94.036 59.3953 94.332C59.3553 94.628 59.3353 95.008 59.3353 95.472C59.3353 95.928 59.3553 96.304 59.3953 96.6C59.4353 96.896 59.4993 97.128 59.5873 97.296C59.6833 97.464 59.8073 97.58 59.9593 97.644C60.1193 97.708 60.3153 97.74 60.5473 97.74ZM67.5349 101.148C67.1669 101.148 66.8109 101.128 66.4669 101.088C66.1229 101.048 65.8149 101 65.5429 100.944C65.2709 100.888 65.0549 100.84 64.8949 100.8C64.7349 100.76 64.6549 100.74 64.6549 100.74L64.8589 99.324C65.4349 99.412 66.0069 99.492 66.5749 99.564C67.1509 99.636 67.6909 99.672 68.1949 99.672C68.4669 99.672 68.6509 99.656 68.7469 99.624C68.8509 99.6 68.9029 99.552 68.9029 99.48C68.9029 99.448 68.8829 99.416 68.8429 99.384C68.8109 99.36 68.7309 99.32 68.6029 99.264C68.4749 99.216 68.2709 99.14 67.9909 99.036C67.7109 98.94 67.3309 98.804 66.8509 98.628C66.5149 98.508 66.2709 98.416 66.1189 98.352C65.9669 98.288 65.8709 98.24 65.8309 98.208C65.7909 98.168 65.7709 98.132 65.7709 98.1C65.7709 98.028 65.7949 97.92 65.8429 97.776C65.8909 97.624 65.9429 97.468 65.9989 97.308C66.0629 97.14 66.1189 97 66.1669 96.888C66.2149 96.776 66.2389 96.72 66.2389 96.72C65.6869 96.528 65.2589 96.24 64.9549 95.856C64.6589 95.472 64.5109 94.976 64.5109 94.368C64.5109 93.72 64.6629 93.208 64.9669 92.832C65.2709 92.456 65.6749 92.188 66.1789 92.028C66.6829 91.868 67.2269 91.788 67.8109 91.788C67.9789 91.788 68.1909 91.792 68.4469 91.8C68.7029 91.808 68.9669 91.82 69.2389 91.836C69.5189 91.852 69.7829 91.868 70.0309 91.884C70.2789 91.9 70.4789 91.912 70.6309 91.92C70.7829 91.928 70.8589 91.932 70.8589 91.932V93.012L70.1149 93.132C70.1149 93.132 70.1389 93.196 70.1869 93.324C70.2429 93.452 70.2949 93.62 70.3429 93.828C70.3909 94.028 70.4149 94.244 70.4149 94.476C70.4149 94.924 70.2949 95.332 70.0549 95.7C69.8149 96.068 69.4669 96.36 69.0109 96.576C68.5549 96.792 67.9989 96.904 67.3429 96.912C67.3429 96.912 67.3389 96.948 67.3309 97.02C67.3229 97.092 67.3189 97.136 67.3189 97.152C67.3189 97.184 67.3669 97.22 67.4629 97.26C67.5589 97.292 67.6989 97.34 67.8829 97.404C68.0749 97.468 68.3029 97.552 68.5669 97.656C69.0789 97.856 69.4829 98.048 69.7789 98.232C70.0829 98.408 70.2989 98.592 70.4269 98.784C70.5549 98.976 70.6189 99.188 70.6189 99.42C70.6189 99.796 70.4869 100.112 70.2229 100.368C69.9589 100.624 69.5949 100.816 69.1309 100.944C68.6669 101.08 68.1349 101.148 67.5349 101.148ZM67.4749 95.556C67.8029 95.556 68.0549 95.52 68.2309 95.448C68.4149 95.376 68.5389 95.244 68.6029 95.052C68.6749 94.852 68.7109 94.576 68.7109 94.224C68.7109 93.968 68.6949 93.748 68.6629 93.564C68.6389 93.38 68.6029 93.264 68.5549 93.216C68.5309 93.192 68.4829 93.172 68.4109 93.156C68.3469 93.14 68.2669 93.132 68.1709 93.132C68.0829 93.124 67.9909 93.12 67.8949 93.12C67.7989 93.112 67.7109 93.108 67.6309 93.108C67.2709 93.108 66.9869 93.136 66.7789 93.192C66.5789 93.24 66.4349 93.352 66.3469 93.528C66.2589 93.696 66.2149 93.96 66.2149 94.32C66.2149 94.808 66.3029 95.136 66.4789 95.304C66.6549 95.472 66.9869 95.556 67.4749 95.556ZM71.9441 99V91.944H73.0961L73.3361 92.688H73.4081C73.4081 92.688 73.4641 92.644 73.5761 92.556C73.6961 92.46 73.8521 92.356 74.0441 92.244C74.2361 92.124 74.4441 92.02 74.6681 91.932C74.8921 91.836 75.1121 91.788 75.3281 91.788C75.6081 91.788 75.8081 91.812 75.9281 91.86C76.0481 91.9 76.1081 91.92 76.1081 91.92L75.9641 93.528C75.9641 93.528 75.8921 93.524 75.7481 93.516C75.6121 93.5 75.4641 93.492 75.3041 93.492C75.1041 93.492 74.9081 93.516 74.7161 93.564C74.5321 93.604 74.3641 93.656 74.2121 93.72C74.0601 93.784 73.9241 93.852 73.8041 93.924V99H71.9441ZM80.0163 99.168C79.3683 99.168 78.7963 99.048 78.3003 98.808C77.8123 98.568 77.4323 98.176 77.1603 97.632C76.8883 97.088 76.7523 96.364 76.7523 95.46C76.7523 94.516 76.8963 93.78 77.1843 93.252C77.4723 92.716 77.8603 92.336 78.3483 92.112C78.8363 91.888 79.3843 91.776 79.9923 91.776C80.6163 91.776 81.1443 91.884 81.5763 92.1C82.0083 92.316 82.3363 92.668 82.5603 93.156C82.7923 93.644 82.9083 94.3 82.9083 95.124V96.12H77.7963L78.6363 95.856C78.6363 96.144 78.6483 96.396 78.6723 96.612C78.6963 96.82 78.7363 96.996 78.7923 97.14C78.8483 97.276 78.9203 97.384 79.0083 97.464C79.0883 97.536 79.1883 97.592 79.3083 97.632C79.4363 97.672 79.6003 97.692 79.8003 97.692C80.0163 97.692 80.2563 97.672 80.5203 97.632C80.7843 97.584 81.0403 97.528 81.2883 97.464C81.5443 97.4 81.7643 97.344 81.9483 97.296C82.1323 97.24 82.2563 97.2 82.3203 97.176L82.7763 98.52C82.7043 98.552 82.5283 98.624 82.2483 98.736C81.9763 98.84 81.6443 98.936 81.2523 99.024C80.8683 99.12 80.4563 99.168 80.0163 99.168ZM78.6363 95.04L77.8083 94.788L81.8523 94.716L81.0123 94.98C81.0123 94.596 80.9963 94.28 80.9643 94.032C80.9323 93.784 80.8763 93.608 80.7963 93.504C80.7403 93.44 80.6563 93.38 80.5443 93.324C80.4323 93.268 80.2483 93.24 79.9923 93.24C79.6883 93.24 79.4603 93.272 79.3083 93.336C79.1563 93.392 79.0403 93.464 78.9603 93.552C78.7443 93.776 78.6363 94.272 78.6363 95.04ZM86.8723 99.156C86.5043 99.156 86.1483 99.12 85.8043 99.048C85.4603 98.976 85.1523 98.896 84.8803 98.808C84.6083 98.72 84.3923 98.64 84.2323 98.568C84.0723 98.496 83.9923 98.46 83.9923 98.46L84.4483 96.996C84.4483 96.996 84.5283 97.028 84.6883 97.092C84.8563 97.156 85.0723 97.232 85.3363 97.32C85.6003 97.408 85.8763 97.484 86.1643 97.548C86.4603 97.612 86.7323 97.644 86.9803 97.644C87.1163 97.644 87.2243 97.632 87.3043 97.608C87.3923 97.584 87.4603 97.556 87.5083 97.524C87.5723 97.476 87.6203 97.408 87.6523 97.32C87.6923 97.232 87.7123 97.136 87.7123 97.032C87.7123 96.832 87.6483 96.68 87.5203 96.576C87.3923 96.464 87.2203 96.372 87.0043 96.3C86.7963 96.228 86.5603 96.156 86.2963 96.084C86.0403 96.004 85.7803 95.92 85.5163 95.832C85.2523 95.736 85.0083 95.612 84.7843 95.46C84.5683 95.3 84.3923 95.096 84.2563 94.848C84.1203 94.6 84.0523 94.28 84.0523 93.888C84.0523 93.256 84.2643 92.748 84.6883 92.364C85.1123 91.98 85.7923 91.788 86.7283 91.788C87.0803 91.788 87.4203 91.812 87.7483 91.86C88.0763 91.908 88.3683 91.964 88.6243 92.028C88.8803 92.092 89.0803 92.148 89.2243 92.196L88.9483 93.636C88.9483 93.636 88.8723 93.62 88.7203 93.588C88.5683 93.548 88.3723 93.504 88.1323 93.456C87.8923 93.408 87.6363 93.368 87.3643 93.336C87.0923 93.296 86.8363 93.276 86.5963 93.276C86.3963 93.276 86.2563 93.288 86.1763 93.312C86.0963 93.336 86.0363 93.364 85.9963 93.396C85.9643 93.42 85.9323 93.46 85.9003 93.516C85.8763 93.564 85.8643 93.632 85.8643 93.72C85.8643 93.896 85.9283 94.04 86.0563 94.152C86.1843 94.256 86.3523 94.344 86.5603 94.416C86.7763 94.488 87.0083 94.56 87.2563 94.632C87.5123 94.704 87.7723 94.784 88.0363 94.872C88.3083 94.952 88.5563 95.068 88.7803 95.22C89.0043 95.364 89.1843 95.564 89.3203 95.82C89.4563 96.068 89.5243 96.396 89.5243 96.804C89.5243 97.508 89.2963 98.076 88.8403 98.508C88.3843 98.94 87.7283 99.156 86.8723 99.156Z" fill="#0DC600"/>
<path fill-rule="evenodd" clip-rule="evenodd" d="M19.5981 3C20.6987 3 21.6102 3.80225 22.0955 4.79012C22.4148 5.43993 22.8323 6.04003 23.3382 6.56551C24.6075 7.88406 26.3291 8.62481 28.1242 8.62481C29.9193 8.62481 31.6409 7.88406 32.9103 6.56551C33.416 6.04014 33.8335 5.44019 34.1527 4.79054C34.6382 3.80246 35.5499 3 36.6508 3C36.7461 3 36.8399 3.00578 36.9321 3.017C38.5396 3.21268 40.4292 4.61749 41.8839 5.32882L46.0497 7.36578C48.2815 8.45709 49.2594 11.1762 48.234 13.439L47.3351 15.4227C46.3097 17.6855 43.6692 18.6352 41.4374 17.5439C40.2912 16.9835 38.9543 17.8179 38.9543 19.0938V32.25C38.9543 34.7343 36.9403 36.7482 34.456 36.7482H21.7935C19.3091 36.7482 17.2952 34.7343 17.2952 32.25V18.9982C17.2952 17.774 16.0013 16.9824 14.9114 17.5398C12.6995 18.671 10.0439 17.7681 8.97996 15.5231L8.04966 13.5602C6.98569 11.3153 7.91623 8.57837 10.1281 7.44721L14.2631 5.33255C15.7597 4.56717 17.7761 3.1081 19.4539 3.00444C19.5016 3.00149 19.5496 3 19.5981 3Z" fill="white"/>
<path d="M22.0955 4.79012L22.5443 4.56964V4.56964L22.0955 4.79012ZM23.3382 6.56551L22.978 6.91228V6.91228L23.3382 6.56551ZM32.9103 6.56551L32.55 6.21875L32.55 6.21875L32.9103 6.56551ZM34.1527 4.79054L34.6015 5.01104V5.01104L34.1527 4.79054ZM46.0497 7.36578L46.2693 6.9166L46.0497 7.36578ZM48.234 13.439L48.6894 13.6454V13.6454L48.234 13.439ZM47.3351 15.4227L46.8797 15.2163L47.3351 15.4227ZM8.97996 15.5231L9.43179 15.309L8.97996 15.5231ZM8.04966 13.5602L8.50149 13.3461L8.04966 13.5602ZM10.1281 7.44721L10.3558 7.89238L10.1281 7.44721ZM22.5443 4.56964C22.0095 3.4811 20.9569 2.5 19.5981 2.5V3.5C20.4405 3.5 21.2109 4.12341 21.6468 5.0106L22.5443 4.56964ZM23.6984 6.21875C23.2291 5.73128 22.8412 5.17397 22.5443 4.56964L21.6468 5.01059C21.9884 5.70589 22.4355 6.34878 22.978 6.91228L23.6984 6.21875ZM28.1242 8.12481C26.468 8.12481 24.8756 7.44154 23.6984 6.21875L22.978 6.91228C24.3395 8.32658 26.1902 9.12481 28.1242 9.12481V8.12481ZM32.55 6.21875C31.3729 7.44154 29.7805 8.12481 28.1242 8.12481V9.12481C30.0582 9.12481 31.909 8.32657 33.2705 6.91228L32.55 6.21875ZM33.704 4.57003C33.4071 5.17421 33.0192 5.73138 32.55 6.21875L33.2705 6.91228C33.8128 6.3489 34.2599 5.70616 34.6015 5.01104L33.704 4.57003ZM36.6508 2.5C35.2917 2.5 34.2389 3.48131 33.704 4.57003L34.6015 5.01104C35.0375 4.12362 35.8081 3.5 36.6508 3.5V2.5ZM36.9925 2.52066C36.8803 2.50701 36.7663 2.5 36.6508 2.5V3.5C36.7258 3.5 36.7995 3.50455 36.8717 3.51333L36.9925 2.52066ZM41.6643 5.778L45.83 7.81496L46.2693 6.9166L42.1036 4.87964L41.6643 5.778ZM45.83 7.81496C47.8189 8.78747 48.6924 11.2161 47.7786 13.2326L48.6894 13.6454C49.8265 11.1362 48.7441 8.12671 46.2693 6.9166L45.83 7.81496ZM47.7786 13.2326L46.8797 15.2163L47.7905 15.6291L48.6894 13.6454L47.7786 13.2326ZM46.8797 15.2163C45.9706 17.2224 43.6356 18.0622 41.657 17.0947L41.2177 17.9931C43.7028 19.2082 46.6487 18.1486 47.7905 15.6291L46.8797 15.2163ZM39.4543 32.25V19.0938H38.4543V32.25H39.4543ZM34.456 37.2482C37.2165 37.2482 39.4543 35.0104 39.4543 32.25H38.4543C38.4543 34.4581 36.6642 36.2482 34.456 36.2482V37.2482ZM21.7935 37.2482H34.456V36.2482H21.7935V37.2482ZM16.7952 32.25C16.7952 35.0104 19.033 37.2482 21.7935 37.2482V36.2482C19.5853 36.2482 17.7952 34.4581 17.7952 32.25H16.7952ZM16.7952 18.9982V32.25H17.7952V18.9982H16.7952ZM8.52814 15.7372C9.71291 18.2371 12.6761 19.2446 15.1391 17.985L14.6838 17.0946C12.723 18.0974 10.375 17.2991 9.43179 15.309L8.52814 15.7372ZM7.59784 13.7743L8.52814 15.7372L9.43179 15.309L8.50149 13.3461L7.59784 13.7743ZM9.90044 7.00205C7.44794 8.25627 6.41811 11.2852 7.59784 13.7743L8.50149 13.3461C7.55326 11.3453 8.38453 8.90047 10.3558 7.89238L9.90044 7.00205ZM14.0355 4.88739L9.90044 7.00205L10.3558 7.89238L14.4908 5.77772L14.0355 4.88739ZM19.5981 2.5C19.5394 2.5 19.481 2.50181 19.423 2.50539L19.4847 3.50349C19.5221 3.50118 19.5599 3.5 19.5981 3.5V2.5ZM14.4908 5.77772C14.8785 5.57942 15.2967 5.33789 15.7198 5.09337C16.1472 4.84637 16.5832 4.59417 17.0231 4.36296C17.9159 3.89381 18.759 3.54832 19.4847 3.50349L19.423 2.50539C18.4709 2.56422 17.467 3.00009 16.558 3.47774C16.0971 3.71993 15.6435 3.98248 15.2194 4.22756C14.7911 4.47512 14.396 4.70299 14.0355 4.88739L14.4908 5.77772ZM17.7952 18.9982C17.7952 17.4003 16.1064 16.3671 14.6838 17.0946L15.1391 17.985C15.8963 17.5977 16.7952 18.1477 16.7952 18.9982H17.7952ZM41.657 17.0947C40.1787 16.3719 38.4543 17.4482 38.4543 19.0938H39.4543C39.4543 18.1877 40.4038 17.5951 41.2177 17.9931L41.657 17.0947ZM36.8717 3.51333C37.574 3.59883 38.3765 3.95708 39.2266 4.41889C40.03 4.85533 40.9334 5.42059 41.6643 5.778L42.1036 4.87964C41.3798 4.52571 40.611 4.03291 39.704 3.54019C38.8437 3.07284 37.8976 2.63084 36.9925 2.52066L36.8717 3.51333Z" fill="#0BA200"/>
<rect x="20.8389" y="16.8962" width="4.63211" height="5.29385" rx="1.79931" fill="#A2FF9C" stroke="#0BA200"/>
<rect x="52.0078" y="23.8354" width="32.7483" height="10.6821" rx="5.34104" fill="white" stroke="#0BA200"/>
<rect x="52.0078" y="16.9128" width="32.7483" height="4.19204" rx="2.09602" fill="white" stroke="#0BA200"/>
<rect x="52.0078" y="9.98999" width="32.7483" height="4.19204" rx="2.09602" fill="white" stroke="#0BA200"/>
<path d="M10.8369 35.0176H89.5828V59.1369C89.5828 67.8002 82.5599 74.8232 73.8966 74.8232H26.5232C17.8599 74.8232 10.8369 67.8002 10.8369 59.1369V35.0176Z" fill="white" stroke="#0BA200"/>
<rect x="6.07715" y="26.364" width="88.2647" height="10.3841" rx="4.70588" fill="#A2FF9C" stroke="#0BA200"/>
<rect x="26.3726" y="44.0631" width="47.6747" height="9.21569" stroke="#0BA200" stroke-width="0.784314"/>
<rect x="26.4805" y="44.1709" width="5.66667" height="9" rx="2.83333" fill="#A2FF9C" stroke="#0BA200"/>
<rect x="40.4111" y="44.1709" width="5.66667" height="9" rx="2.83333" fill="#A2FF9C" stroke="#0BA200"/>
<rect x="54.3418" y="44.1709" width="5.66667" height="9" rx="2.83333" fill="#A2FF9C" stroke="#0BA200"/>
<rect x="68.2725" y="44.1709" width="5.66667" height="9" rx="2.83333" fill="#A2FF9C" stroke="#0BA200"/>
<rect x="33.3922" y="58.3922" width="35.2157" height="9.21569" stroke="#0BA200" stroke-width="0.784314"/>
<rect x="33.5" y="58.5" width="5.66667" height="9" rx="2.83333" fill="#A2FF9C" stroke="#0BA200"/>
<rect x="48.167" y="58.5" width="5.66667" height="9" rx="2.83333" fill="#A2FF9C" stroke="#0BA200"/>
<rect x="62.833" y="58.5" width="5.66667" height="9" rx="2.83333" fill="#A2FF9C" stroke="#0BA200"/>
<rect x="0.5" y="79.7432" width="99" height="2.31492" rx="1.15746" fill="#A2FF9C" stroke="#0BA200"/>
</svg>
