<svg width="21" height="18" viewBox="0 0 21 18" fill="none" xmlns="http://www.w3.org/2000/svg">
<path d="M14.6076 2.91038L17.7395 6.04232C17.8715 6.17427 17.8715 6.38955 17.7395 6.52149L10.1562 14.1048L6.93397 14.4625C6.50342 14.5111 6.13884 14.1465 6.18745 13.7159L6.54508 10.4937L14.1284 2.91038C14.2604 2.77844 14.4756 2.77844 14.6076 2.91038ZM20.2326 2.11524L18.5381 0.420797C18.0104 -0.106981 17.1527 -0.106981 16.6215 0.420797L15.3923 1.64996C15.2604 1.78191 15.2604 1.99719 15.3923 2.12913L18.5243 5.26107C18.6562 5.39302 18.8715 5.39302 19.0034 5.26107L20.2326 4.03191C20.7604 3.50066 20.7604 2.64302 20.2326 2.11524ZM13.9618 12.0423V15.577H2.85064V4.46594H10.8298C10.9409 4.46594 11.0451 4.4208 11.1249 4.34441L12.5138 2.95552C12.7777 2.69163 12.5902 2.24371 12.2187 2.24371H2.29508C1.37495 2.24371 0.628418 2.99024 0.628418 3.91038V16.1326C0.628418 17.0527 1.37495 17.7993 2.29508 17.7993H14.5173C15.4374 17.7993 16.184 17.0527 16.184 16.1326V10.6534C16.184 10.2819 15.7361 10.0979 15.4722 10.3583L14.0833 11.7472C14.0069 11.827 13.9618 11.9312 13.9618 12.0423Z" fill="#4E9BFF"/>
</svg>
